<svg width="162" height="41" viewBox="0 0 162 41" fill="none" xmlns="http://www.w3.org/2000/svg">
<g clip-path="url(#clip0_1538_61)">
<path d="M56.671 33.7919H46.3823V30.148H56.754C58.0815 30.148 59.1602 29.0714 59.1602 27.7464C59.1602 26.4213 58.0815 25.3447 56.754 25.3447H52.5223C49.1204 25.3447 46.4652 22.6118 46.4652 19.2992C46.4652 15.9865 49.2034 13.2536 52.5223 13.2536H62.894V16.8975H52.4393C51.1118 16.8975 50.0331 17.9741 50.0331 19.2992C50.0331 20.6242 51.1118 21.7008 52.4393 21.7008H56.671C60.0729 21.7008 62.7281 24.4337 62.7281 27.7464C62.7281 31.059 60.0729 33.7919 56.671 33.7919Z" fill="white"/>
<path d="M148.855 33.7919H145.204V23.3571C145.204 17.7257 149.767 13.1708 155.41 13.1708H161.633V16.8147H155.41C151.759 16.8147 148.855 19.7132 148.855 23.3571V33.7919Z" fill="white"/>
<path d="M80.4844 33.7919H77.5803C71.7722 33.7919 67.0427 29.0714 67.0427 23.2743V7.12524H70.6935V23.2743C70.6935 27.0838 73.7636 30.148 77.5803 30.148H80.4844V33.7919Z" fill="white"/>
<path d="M119.067 33.7919H117.242C111.434 33.7919 106.704 29.0714 106.704 23.2743V7.12524H110.355V23.2743C110.355 27.0838 113.425 30.148 117.242 30.148H119.067V33.7919Z" fill="white"/>
<path d="M141.055 23.4399H137.404V33.7919H141.055V23.4399Z" fill="white"/>
<path d="M130.683 33.7919C124.958 33.7919 120.312 29.1542 120.312 23.4399C120.312 17.7257 124.958 13.088 130.683 13.088C136.409 13.088 141.055 17.8085 141.055 23.4399C141.055 29.0714 136.409 33.7919 130.683 33.7919ZM130.683 16.8147C127.033 16.8147 123.963 19.7961 123.963 23.5228C123.963 27.2495 126.95 30.2308 130.683 30.2308C134.417 30.2308 137.404 27.2495 137.404 23.5228C137.404 19.7961 134.417 16.8147 130.683 16.8147Z" fill="white"/>
<path d="M79.4887 13.1708H67.0427V16.8147H79.4887V13.1708Z" fill="white"/>
<path d="M97.4111 33.7919H92.9305C87.2053 33.7919 82.5588 29.1542 82.5588 23.4399C82.5588 17.7257 87.2053 13.088 92.9305 13.088C98.6557 13.088 103.302 17.7257 103.302 23.4399V25.2619H86.5415C87.3713 28.0776 89.9434 30.0652 92.9305 30.0652H97.4111V33.7919ZM86.4585 21.618H99.3195C98.4897 18.8023 95.9175 16.8147 92.9305 16.8147C89.9434 16.8147 87.2883 18.8851 86.4585 21.618Z" fill="white"/>
<path d="M0 35.4482L24.4772 11.0176C31.1981 17.7257 31.1981 28.6573 24.4772 35.4482C17.6734 42.1563 6.72087 42.1563 0 35.4482Z" fill="#EDF4FA"/>
<path d="M0 35.4482L24.4772 11.0176C31.1981 17.7257 31.1981 28.6573 24.4772 35.4482C17.6734 42.1563 6.72087 42.1563 0 35.4482Z" fill="url(#paint0_linear_1538_61)"/>
<path d="M29.8705 5.55175L5.47626 29.9824C-1.24461 23.2743 -1.24461 12.3426 5.47626 5.55175C12.1971 -1.15633 23.1496 -1.15633 29.8705 5.55175Z" fill="#EDF4FA"/>
<path d="M29.8705 5.55175L5.47626 29.9824C-1.24461 23.2743 -1.24461 12.3426 5.47626 5.55175C12.1971 -1.15633 23.1496 -1.15633 29.8705 5.55175Z" fill="url(#paint1_linear_1538_61)"/>
<path d="M24.4773 11.0176L10.8696 24.5165C7.13576 20.7898 7.13576 14.6615 10.8696 10.9348C14.6034 7.20805 20.7434 7.20805 24.4773 11.0176Z" fill="#1E5DAB"/>
<path d="M5.47626 29.9824L19.0839 16.4006C22.8177 20.1273 22.8177 26.2557 19.0839 29.9824C15.2671 33.7091 9.21007 33.7091 5.47626 29.9824Z" fill="#1E5DAB"/>
</g>
<defs>
<linearGradient id="paint0_linear_1538_61" x1="30.5863" y1="17.09" x2="6.16376" y2="41.5592" gradientUnits="userSpaceOnUse">
<stop stop-color="#72D0F6" stop-opacity="0.2"/>
<stop offset="0.089272" stop-color="#6AC9F2" stop-opacity="0.2714"/>
<stop offset="0.4441" stop-color="#49B6E8" stop-opacity="0.5553"/>
<stop offset="0.7592" stop-color="#2FACE2" stop-opacity="0.8073"/>
<stop offset="1" stop-color="#22A8E0"/>
</linearGradient>
<linearGradient id="paint1_linear_1538_61" x1="-0.679557" y1="23.8744" x2="23.743" y2="-0.594737" gradientUnits="userSpaceOnUse">
<stop stop-color="#72D0F6" stop-opacity="0.2"/>
<stop offset="0.089272" stop-color="#6AC9F2" stop-opacity="0.2714"/>
<stop offset="0.4441" stop-color="#49B6E8" stop-opacity="0.5553"/>
<stop offset="0.7592" stop-color="#2FACE2" stop-opacity="0.8073"/>
<stop offset="1" stop-color="#22A8E0"/>
</linearGradient>
<clipPath id="clip0_1538_61">
<rect width="161.633" height="40" fill="white" transform="translate(0 0.5)"/>
</clipPath>
</defs>
</svg>
