<svg width="24" height="24" viewBox="0 0 24 24" fill="none" xmlns="http://www.w3.org/2000/svg">
<path d="M10.0983 8.99174C11.2075 9.0269 12.0897 9.48879 12.6611 10.4485C13.0111 11.0359 13.4993 11.3499 14.1618 11.3787C14.698 11.4019 15.2382 11.4234 15.7744 11.3571C16.3226 11.2892 16.7413 11.0255 17.029 10.5436C18.0814 8.77998 20.275 8.46113 21.7925 9.84679C22.9249 10.8808 23.0256 12.726 22.0147 13.9103C20.6186 15.5469 18.1422 15.3391 17.0466 13.4851C16.7174 12.9282 16.2291 12.6573 15.6082 12.6261C15.0784 12.5997 14.5454 12.5853 14.0156 12.6413C13.425 12.7036 12.9943 12.9961 12.6914 13.5123C11.8412 14.9627 10.0488 15.435 8.58559 14.6079C7.52197 14.007 6.90506 12.7276 7.11043 11.5497C7.33658 10.2511 8.29551 9.26184 9.54053 9.03729C9.72513 9.00373 9.90972 8.99334 10.0983 8.99174ZM10.0751 12.5853C10.2214 12.5853 10.3676 12.5814 10.5131 12.5869C10.6345 12.5917 10.6777 12.539 10.6753 12.4207C10.6705 12.1418 10.6705 11.863 10.6753 11.5841C10.6769 11.4666 10.6361 11.4123 10.5139 11.417C10.3748 11.4226 10.235 11.4131 10.0959 11.4194C9.91212 11.4282 9.67958 11.3395 9.55651 11.457C9.42386 11.5841 9.51176 11.8222 9.50937 12.0116C9.50217 12.5853 9.50697 12.5861 10.0751 12.5853Z" fill="#1E5DAB"/>
<path d="M17.8824 5.7034C17.884 7.37594 16.9866 8.56022 15.6785 8.92382C14.3751 9.28581 12.9711 8.73203 12.2927 7.55654C11.9538 6.96919 11.4584 6.67032 10.8047 6.64235C10.2685 6.61918 9.72831 6.5976 9.1921 6.66313C8.64391 6.73025 8.22518 6.99476 7.9383 7.47663C6.87388 9.26104 4.64116 9.56311 3.13244 8.1311C1.93217 6.99236 1.97053 4.93465 3.21315 3.83587C4.74504 2.48058 6.89705 2.81061 7.94229 4.56706C8.26993 5.11765 8.76777 5.36777 9.3783 5.39494C9.90811 5.41891 10.4411 5.43729 10.9709 5.37576C11.5447 5.30943 11.9698 5.02655 12.2655 4.52471C13.1381 3.04395 14.9417 2.56129 16.4137 3.43472C17.379 4.00768 17.8537 4.8899 17.8832 5.7034H17.8824ZM14.8754 6.6024C15.0144 6.6024 15.1543 6.5984 15.2933 6.60399C15.41 6.60799 15.4635 6.56644 15.4611 6.44337C15.4563 6.15809 15.4571 5.87281 15.4611 5.58672C15.4627 5.47485 15.4148 5.4333 15.3053 5.43489C15.02 5.43809 14.7339 5.43809 14.4487 5.43489C14.3408 5.4333 14.2904 5.47245 14.292 5.58513C14.2952 5.87041 14.2968 6.15649 14.292 6.44177C14.2896 6.56324 14.3392 6.60879 14.4583 6.60399C14.5973 6.5984 14.7371 6.6024 14.8762 6.6024H14.8754Z" fill="#1E5DAB"/>
<path d="M17.8832 17.9418C17.8817 19.3506 16.9739 20.5389 15.6657 20.8945C14.3664 21.2477 12.9687 20.6955 12.2975 19.5272C11.9283 18.8855 11.3793 18.6091 10.6721 18.6011C10.1942 18.5963 9.71553 18.5707 9.23846 18.6226C8.64072 18.6874 8.206 18.9814 7.89914 19.5049C7.01612 21.0136 5.07908 21.4523 3.6183 20.487C2.57546 19.7981 2.06243 18.5747 2.31255 17.3728C2.55708 16.1981 3.55597 15.2352 4.75144 15.0218C5.99726 14.7989 7.25266 15.3471 7.87517 16.4275C8.21639 17.0204 8.71024 17.3313 9.37271 17.3608C9.90252 17.3848 10.4355 17.4024 10.9653 17.3425C11.5391 17.2777 11.9642 16.9964 12.2631 16.4954C12.8632 15.4893 13.7558 14.9755 14.9337 14.9787C16.345 14.9827 17.5924 16.0407 17.8425 17.436C17.8753 17.6206 17.8864 17.8051 17.884 17.941L17.8832 17.9418ZM14.8618 18.5683C15.008 18.5683 15.1543 18.5643 15.2997 18.5699C15.4212 18.5747 15.4643 18.522 15.4619 18.4037C15.4571 18.1248 15.4571 17.8459 15.4619 17.567C15.4635 17.4495 15.4228 17.3952 15.3005 17.4C15.1615 17.4056 15.0216 17.396 14.8826 17.4024C14.6988 17.4112 14.4662 17.3225 14.3432 17.44C14.2105 17.567 14.2984 17.8051 14.296 17.9945C14.2888 18.5683 14.2936 18.5691 14.8618 18.5683Z" fill="#1E5DAB"/>
</svg>
