<svg width="24" height="24" viewBox="0 0 24 24" fill="none" xmlns="http://www.w3.org/2000/svg">
<path d="M11.428 6.64014C11.428 7.97941 11.428 9.31789 11.428 10.6572C11.428 10.9361 11.4014 10.9564 11.1428 10.8353C10.6154 10.5884 10.2513 10.2235 10.2208 9.59606C10.2044 9.27023 9.90512 9.02566 9.61679 9.0577C9.28158 9.09442 9.08077 9.38587 9.09953 9.73827C9.15735 10.8275 10.0309 11.7425 11.1631 12.023C11.3788 12.0761 11.4343 12.1668 11.4335 12.3777C11.4249 13.7748 11.4288 15.1727 11.4288 16.5698C11.4288 16.7589 11.3316 16.8537 11.1373 16.8542C10.767 16.8542 10.3966 16.8565 10.0254 16.8542C8.87605 16.8456 7.88059 16.0806 7.5868 14.9703C7.54695 14.8195 7.47428 14.7476 7.32973 14.6953C5.25051 13.9373 4.48242 11.3549 5.81075 9.59137C5.89982 9.47338 5.90998 9.39525 5.817 9.27101C4.48555 7.50043 5.24504 4.92348 7.32191 4.16399C7.47272 4.10851 7.54773 4.03428 7.58992 3.87566C8.01186 2.30511 9.79494 1.5339 11.2366 2.28714C11.3733 2.35825 11.4327 2.44263 11.4319 2.60438C11.4257 3.94989 11.428 5.29541 11.428 6.64092V6.64014Z" fill="#1E5DAB"/>
<path d="M12.5704 12.3871C12.5704 10.99 12.5704 9.59215 12.5704 8.19507C12.5704 7.92315 12.5962 7.90127 12.8407 8.01379C13.3689 8.25679 13.7432 8.61466 13.7752 9.24288C13.7924 9.57887 14.0894 9.83203 14.3855 9.79765C14.7184 9.75858 14.9332 9.46245 14.9035 9.11474C14.7973 7.84658 13.8073 7.0699 12.8345 6.83158C12.6344 6.78235 12.5633 6.70968 12.5649 6.49637C12.5758 5.20321 12.5735 3.90926 12.5665 2.6161C12.5657 2.44732 12.6274 2.35825 12.7712 2.28323C14.1995 1.53468 15.9795 2.30511 16.4061 3.86707C16.4514 4.03194 16.5288 4.10929 16.6866 4.16868C18.7651 4.94145 19.5089 7.49652 18.1775 9.28039C18.0993 9.38509 18.0884 9.45698 18.1704 9.56949C19.5183 11.3924 18.7627 13.9319 16.6413 14.7054C16.5077 14.7539 16.4499 14.8289 16.4147 14.9617C16.1162 16.0853 15.127 16.8464 13.9636 16.855C13.5932 16.8573 13.2228 16.8558 12.8517 16.855C12.5712 16.855 12.5704 16.855 12.5704 16.5799C12.5704 15.1828 12.5704 13.785 12.5704 12.3879V12.3871Z" fill="#1E5DAB"/>
<path d="M12.007 17.9958C12.904 17.9958 13.8018 18.0005 14.6988 17.9919C14.8848 17.9903 14.9613 18.0434 14.9418 18.2333C14.9285 18.3622 14.9418 18.4935 14.9387 18.6232C14.9277 19.1506 14.5082 19.5796 13.9815 19.5819C12.6618 19.5874 11.342 19.5866 10.0215 19.5819C9.49411 19.5804 9.07139 19.1522 9.05967 18.6271C9.05655 18.4974 9.06827 18.3661 9.05655 18.2372C9.03936 18.0528 9.10421 17.9895 9.29564 17.9911C10.1997 17.9997 11.1029 17.995 12.007 17.995V17.9958Z" fill="#1E5DAB"/>
<path d="M12 20.7266C12.579 20.7266 13.1572 20.7266 13.7362 20.7266C13.962 20.7266 13.9753 20.7509 13.8651 20.9384C13.0251 22.3636 10.9694 22.3621 10.1325 20.9368C10.0262 20.7556 10.0395 20.7274 10.245 20.7266C10.8303 20.7251 11.4155 20.7266 12.0008 20.7266H12Z" fill="#1E5DAB"/>
<path d="M2.59621 15.0969C2.33601 15.0969 2.11723 14.9437 2.0305 14.7C1.94533 14.4601 2.00627 14.1843 2.21802 14.035C2.63059 13.7436 3.05096 13.4615 3.47993 13.1943C3.73622 13.0349 4.0683 13.12 4.24646 13.3544C4.4293 13.5951 4.41992 13.9553 4.17926 14.1483C3.75498 14.4882 3.29553 14.782 2.8228 15.0539C2.75404 15.093 2.67434 15.0992 2.59542 15.0961L2.59621 15.0969Z" fill="#1E5DAB"/>
<path d="M2.60792 3.36777C2.73841 3.35918 2.86265 3.41466 2.97751 3.49045C3.3346 3.72564 3.69246 3.96083 4.04564 4.20149C4.37616 4.42731 4.46367 4.78127 4.26989 5.07663C4.0769 5.37198 3.71668 5.43371 3.37913 5.21493C3.00408 4.97192 2.63293 4.72189 2.2649 4.46716C2.02971 4.30463 1.94298 4.03975 2.02346 3.78424C2.10316 3.53342 2.32897 3.36856 2.60714 3.36777H2.60792Z" fill="#1E5DAB"/>
<path d="M21.9999 14.5054C21.996 14.9383 21.5467 15.2469 21.1639 15.0438C20.6896 14.7922 20.2458 14.4827 19.8215 14.1522C19.5871 13.9694 19.5683 13.6178 19.7371 13.3748C19.9043 13.1341 20.2309 13.0403 20.4974 13.1833C20.7193 13.3029 20.9248 13.4529 21.1357 13.5912C21.3311 13.7193 21.5256 13.8475 21.7171 13.9811C21.8976 14.1069 22.0031 14.278 21.9999 14.5054Z" fill="#1E5DAB"/>
<path d="M21.9999 3.91082C21.9999 4.18665 21.9015 4.35699 21.7264 4.47653C21.3405 4.73907 20.9537 5.00005 20.5591 5.24931C20.2692 5.43215 19.9152 5.35323 19.7332 5.08444C19.5464 4.80783 19.6113 4.4445 19.9004 4.24447C20.284 3.9788 20.6739 3.72173 21.0646 3.46779C21.2725 3.33261 21.4936 3.32558 21.7085 3.45216C21.903 3.56624 21.9976 3.74205 21.9999 3.91161V3.91082Z" fill="#1E5DAB"/>
<path d="M3.17754 9.83125C2.98298 9.83125 2.78764 9.83516 2.59308 9.83125C2.25162 9.82266 2.00002 9.56949 1.99846 9.23897C1.99612 8.90533 2.24381 8.64279 2.58214 8.63654C2.98455 8.62951 3.38773 8.62873 3.79014 8.63654C4.11831 8.64279 4.36366 8.90299 4.36601 9.22725C4.36835 9.5609 4.12066 9.82031 3.78232 9.83047C3.58151 9.83672 3.37992 9.83125 3.17833 9.83203L3.17754 9.83125Z" fill="#1E5DAB"/>
<path d="M20.8271 8.63341C21.0217 8.63341 21.217 8.62872 21.4116 8.63419C21.7515 8.64357 21.9999 8.90064 21.9992 9.2335C21.9992 9.56637 21.7491 9.82422 21.4084 9.82969C21.0123 9.83594 20.6161 9.83594 20.22 9.82969C19.8801 9.82422 19.6316 9.56402 19.6324 9.23116C19.6324 8.89908 19.8832 8.64357 20.2231 8.63498C20.4239 8.62951 20.6255 8.63419 20.8271 8.63419V8.63341Z" fill="#1E5DAB"/>
</svg>
