<svg width="24" height="24" viewBox="0 0 24 24" fill="none" xmlns="http://www.w3.org/2000/svg">
<path d="M22.2945 12.0012C22.2391 15.1252 21.0454 17.7295 18.6926 19.7899C17.1912 21.1049 15.4393 21.917 13.4624 22.1821C10.4171 22.5902 7.69717 21.8021 5.34755 19.8164C3.71446 18.4364 2.61476 16.7012 2.0629 14.6328C1.44035 12.3024 1.66206 10.0412 2.6485 7.84659C2.71276 7.70441 2.7714 7.702 2.87743 7.80884C3.41323 8.35026 3.95143 8.89007 4.49445 9.42425C4.6021 9.52948 4.58924 9.62989 4.54988 9.75039C4.30568 10.5007 4.20045 11.2766 4.20688 12.059C4.21652 13.2431 4.47678 14.3789 5.01258 15.4401C5.93475 17.2652 7.34854 18.5544 9.25876 19.2943C10.148 19.6389 11.0742 19.8132 12.0213 19.8019C13.7403 19.7819 15.3123 19.2774 16.6852 18.2259C18.413 16.9037 19.4541 15.1621 19.7272 13.0021C20.0277 10.6195 19.3481 8.52296 17.7383 6.73966C16.6241 5.50581 15.2352 4.72742 13.6142 4.37799C12.3305 4.10166 11.0517 4.15789 9.79295 4.54026C9.60739 4.59649 9.48931 4.56757 9.35435 4.4286C8.8523 3.91048 8.33578 3.40521 7.8265 2.89432C7.67628 2.7433 7.6811 2.72643 7.87791 2.63726C9.38568 1.96009 10.9633 1.62592 12.6157 1.73437C14.9027 1.88378 16.9302 2.69912 18.6709 4.19564C20.4695 5.74278 21.6182 7.68031 22.0969 10.0082C22.2319 10.6637 22.301 11.3272 22.2945 12.0012Z" fill="#1E5DAB"/>
<path d="M17.4346 11.602C17.4298 14.5886 15.6224 16.833 13.0856 17.3222C11.0919 17.7062 9.3664 17.1342 7.98233 15.6369C6.93484 14.5035 6.49464 13.1411 6.58541 11.6068C6.61112 11.1722 6.72037 10.7505 6.85291 10.336C6.88986 10.2195 6.95734 10.1785 7.07381 10.1834C7.22081 10.1898 7.36782 10.189 7.51482 10.1834C7.61684 10.1793 7.69235 10.2179 7.76304 10.2886C8.15343 10.6822 8.54383 11.0766 8.94066 11.4638C9.04026 11.561 9.05231 11.6662 9.04107 11.7907C8.90049 13.3411 10.0347 14.6697 11.4558 14.9356C13.1812 15.2585 14.8336 13.999 14.9726 12.2494C15.1019 10.6316 13.9492 9.3126 12.5442 9.07402C12.308 9.03386 12.0687 8.9945 11.8285 9.03787C11.6542 9.07 11.5272 9.01137 11.4043 8.88204C11.0814 8.54385 10.7529 8.21049 10.4115 7.89078C10.2412 7.73173 10.1673 7.56625 10.1793 7.33088C10.205 6.83365 10.099 6.90996 10.6075 6.77501C12.4735 6.28179 14.1452 6.68263 15.5943 7.94299C16.8225 9.01056 17.4073 10.3906 17.4338 11.6004L17.4346 11.602Z" fill="#1E5DAB"/>
<path d="M9.01056 6.97262C9.01056 7.28027 9.0194 7.58793 9.00735 7.89479C9.00092 8.06188 9.05313 8.18076 9.17282 8.29965C10.2404 9.35838 11.3015 10.4243 12.3651 11.4863C12.5065 11.6269 12.6181 11.7787 12.6197 11.99C12.6205 12.2414 12.5097 12.4286 12.2928 12.5466C12.0815 12.6615 11.8663 12.6495 11.6662 12.5169C11.5835 12.4623 11.5128 12.3884 11.4421 12.3177C10.3874 11.2646 9.33187 10.2123 8.28117 9.15595C8.17915 9.05313 8.07633 9.00654 7.93014 9.00815C7.30196 9.01538 6.67379 9.00815 6.04562 9.01297C5.83034 9.01458 5.65763 8.94228 5.50742 8.79206C4.32256 7.6048 3.13611 6.41915 1.94885 5.2343C1.73999 5.02544 1.65484 4.78526 1.77293 4.50571C1.89101 4.22617 2.12236 4.12415 2.41957 4.12817C2.93448 4.1346 3.44859 4.12496 3.96349 4.13299C4.11933 4.1354 4.17476 4.0872 4.17235 3.92735C4.16432 3.41967 4.17235 2.91199 4.16833 2.40351C4.16512 2.11352 4.27356 1.89101 4.54347 1.77614C4.82141 1.65725 5.064 1.73919 5.27205 1.94965C6.45128 3.14253 7.63051 4.33542 8.81054 5.5275C8.94951 5.66807 9.01699 5.83275 9.01297 6.03196C9.00735 6.34605 9.01136 6.66014 9.01136 6.97422L9.01056 6.97262Z" fill="#1E5DAB"/>
</svg>
