<svg width="24" height="24" viewBox="0 0 24 24" fill="none" xmlns="http://www.w3.org/2000/svg">
<path d="M1.71588 14.6655C1.70384 14.3894 1.7817 14.135 1.88363 13.8862C2.11399 13.3243 2.34113 12.7609 2.57951 12.2015C2.64212 12.0546 2.64292 11.9278 2.58112 11.7809C2.33632 11.203 2.09713 10.6227 1.86357 10.04C1.50078 9.13461 1.81461 8.22282 2.65416 7.72358C3.20557 7.39611 3.75457 7.06623 4.30838 6.74277C4.41995 6.67775 4.48817 6.59749 4.5267 6.47388C4.74341 5.78603 4.96895 5.10138 5.18405 4.41353C5.43849 3.59886 6.30212 3.08357 7.20427 3.18229C7.92022 3.26095 8.64018 3.30108 9.35773 3.36048C9.44281 3.3677 9.49418 3.31874 9.54876 3.26978C9.92278 2.93749 10.3 2.60761 10.6716 2.27211C11.4959 1.52968 12.4776 1.52566 13.3035 2.26408C13.6767 2.59798 14.0539 2.92786 14.4255 3.26256C14.5058 3.33479 14.5813 3.36128 14.6944 3.35165C15.4385 3.28664 16.1833 3.21922 16.929 3.17748C17.856 3.12531 18.596 3.66387 18.8376 4.56041C18.9901 5.12707 19.1225 5.70015 19.2526 6.27242C19.2911 6.44098 19.3665 6.55334 19.519 6.64163C20.125 6.99399 20.7246 7.35838 21.325 7.71957C22.1878 8.23807 22.4904 9.15868 22.1051 10.0913C21.8756 10.6468 21.65 11.2038 21.4141 11.756C21.3466 11.9141 21.3394 12.0514 21.4092 12.2135C21.6468 12.7649 21.8716 13.3227 22.0979 13.879C22.4912 14.8453 22.1942 15.7354 21.3001 16.2748C20.7109 16.6304 20.1218 16.9851 19.5287 17.3327C19.3802 17.4194 19.2935 17.5253 19.255 17.6979C19.1314 18.2517 18.9853 18.7999 18.8593 19.3529C18.6522 20.2623 17.852 20.8859 16.8816 20.7936C16.1978 20.7286 15.5115 20.6885 14.8269 20.6307C14.6487 20.6154 14.5098 20.6556 14.3742 20.7816C14.0122 21.1179 13.6382 21.4413 13.2649 21.7648C12.4623 22.4607 11.5064 22.4567 10.7086 21.7568C10.3273 21.4221 9.94526 21.0882 9.56882 20.7479C9.46609 20.6548 9.36014 20.6186 9.2245 20.6291C8.50614 20.6861 7.78779 20.7374 7.07023 20.7944C6.19216 20.8643 5.40718 20.3409 5.1688 19.491C5.00105 18.8938 4.86621 18.287 4.72495 17.6826C4.68722 17.5213 4.61017 17.4153 4.46409 17.3303C3.84607 16.9723 3.23286 16.6055 2.62205 16.2355C2.03292 15.8807 1.73434 15.3518 1.71588 14.6655ZM11.9823 5.40157C8.29264 5.45053 5.39274 8.36568 5.40317 12.0128C5.4136 15.7033 8.35846 18.5872 11.9904 18.588C15.6632 18.588 18.5824 15.6576 18.5792 11.9952C18.5759 8.31913 15.6407 5.43367 11.9823 5.40157Z" fill="#1E5DAB"/>
<path d="M11.996 6.57421C15.0018 6.57502 17.417 8.99495 17.4161 12.004C17.4153 15.0099 14.9954 17.4258 11.9872 17.425C8.9821 17.4242 6.56618 15.0034 6.56699 11.9952C6.56779 8.98933 8.98772 6.57421 11.996 6.57502V6.57421ZM15.5749 10.174C15.5789 9.94446 15.3959 9.70768 15.1431 9.64267C14.8863 9.57605 14.692 9.6812 14.5162 9.85778C13.5306 10.8466 12.541 11.8306 11.5585 12.8227C11.4293 12.9535 11.3523 12.9567 11.2222 12.8235C10.6339 12.2223 10.0368 11.6292 9.4388 11.0368C9.16671 10.7672 8.82479 10.7519 8.5832 10.9879C8.3416 11.2239 8.34883 11.5762 8.6145 11.8435C9.39144 12.6252 10.17 13.4046 10.9526 14.1807C11.2247 14.4504 11.5521 14.4544 11.8226 14.1856C13.0113 13.0033 14.1944 11.8162 15.3799 10.6307C15.4987 10.5119 15.5637 10.3707 15.5749 10.1748V10.174Z" fill="#1E5DAB"/>
</svg>
