<svg width="24" height="24" viewBox="0 0 24 24" fill="none" xmlns="http://www.w3.org/2000/svg">
<path d="M4.29456 6.63567C4.29456 5.07607 4.29456 3.51647 4.29555 1.95589C4.29555 1.87633 4.25921 1.76044 4.32796 1.72607C4.42519 1.67696 4.47724 1.79776 4.53616 1.85669C6.96298 4.28056 9.38881 6.70639 11.8137 9.13123C12.0415 9.35908 12.0395 9.37087 11.74 9.4573C9.36425 10.1448 6.98851 10.8303 4.61277 11.5158C4.29555 11.6072 4.29456 11.6042 4.29456 11.2654C4.29456 9.72149 4.29456 8.17858 4.29456 6.63469V6.63567Z" fill="#1E5DAB"/>
<path d="M12.3067 10.3127C12.2369 11.0906 12.1692 11.8704 12.0975 12.6502C12.0071 13.649 11.9138 14.6478 11.8225 15.6466C11.7135 16.832 11.6045 18.0174 11.4925 19.2028C11.4866 19.2677 11.519 19.3678 11.4257 19.3924C11.356 19.4101 11.3167 19.3315 11.2735 19.2863C10.1578 18.1176 9.04211 16.9479 7.92741 15.7772C7.00422 14.8079 6.08103 13.8385 5.15784 12.8692C5.03409 12.7395 4.91329 12.6069 4.79151 12.4744C4.62357 12.2917 4.62651 12.275 4.87892 12.2013C6.00737 11.8733 7.13681 11.5492 8.26526 11.2222C9.51942 10.8598 10.7736 10.4964 12.0277 10.134C12.1859 10.0888 12.3548 10.0318 12.3077 10.3127H12.3067Z" fill="#1E5DAB"/>
<path d="M12.2429 19.0506C12.3312 18.0675 12.4177 17.1011 12.5051 16.1357C12.5954 15.1379 12.6868 14.139 12.7791 13.1412C12.8567 12.3054 12.9352 11.4697 13.0158 10.6339C13.0217 10.574 12.9991 10.4895 13.0777 10.464C13.1513 10.4394 13.1935 10.5111 13.2377 10.5553C14.485 11.8006 15.7294 13.0489 16.9796 14.2903C17.123 14.4327 17.066 14.5152 16.9531 14.6291C15.4514 16.1269 13.9517 17.6285 12.4511 19.1272C12.402 19.1763 12.3568 19.2716 12.2782 19.2343C12.2026 19.1989 12.2527 19.1017 12.2448 19.0496L12.2429 19.0506Z" fill="#1E5DAB"/>
<path d="M17.2683 9.55453C17.2683 10.7871 17.2683 12.0196 17.2673 13.2522C17.2673 13.3219 17.3027 13.4192 17.2271 13.4535C17.1485 13.4889 17.1033 13.3946 17.0542 13.3455C15.8472 12.1404 14.6421 10.9324 13.4322 9.72934C13.3006 9.59872 13.2819 9.51328 13.4243 9.37283C14.6412 8.16581 15.8511 6.95093 17.064 5.73998C17.1082 5.69579 17.1515 5.61525 17.2182 5.63882C17.3037 5.66927 17.2673 5.76552 17.2673 5.83328C17.2693 7.0737 17.2693 8.31509 17.2693 9.55551L17.2683 9.55453Z" fill="#1E5DAB"/>
<path d="M12.7476 8.98195C12.672 8.98097 12.6327 8.92401 12.5876 8.87883C11.9413 8.23358 11.2961 7.58538 10.6479 6.94308C10.5398 6.83701 10.5172 6.7388 10.5781 6.59639C11.2401 5.04366 11.8971 3.48897 12.5571 1.93526C12.5817 1.8783 12.5954 1.78696 12.673 1.79875C12.7525 1.81151 12.7594 1.90973 12.7859 1.97553C13.3457 3.35835 13.9046 4.74313 14.4634 6.12694C14.4693 6.14167 14.4742 6.15738 14.4801 6.1731C14.5763 6.44023 14.8101 6.70246 14.7482 6.96763C14.6873 7.22887 14.3829 7.38896 14.1845 7.59226C13.7681 8.01751 13.3438 8.43589 12.9225 8.85624C12.8714 8.90731 12.8282 8.97115 12.7486 8.98293L12.7476 8.98195Z" fill="#1E5DAB"/>
<path d="M4.64127 22.2631C4.64618 22.162 4.71198 22.107 4.7601 22.0431C5.89445 20.5287 7.0337 19.0162 8.16216 17.4979C8.30358 17.3083 8.38706 17.3025 8.54715 17.4743C9.33186 18.315 10.1254 19.1469 10.9199 19.9787C11.0348 20.0985 11.083 20.1732 10.8757 20.2409C8.85553 20.9098 6.83728 21.5845 4.81706 22.2553C4.76599 22.272 4.71296 22.3093 4.64127 22.2621V22.2631Z" fill="#1E5DAB"/>
<path d="M20.8148 8.82874C20.3041 8.72758 19.7767 8.62348 19.2483 8.51839C18.9046 8.44964 18.5618 8.37598 18.2171 8.31116C18.0717 8.28367 18.0138 8.21197 18.0148 8.06171C18.0197 7.1886 18.0197 6.3155 18.0148 5.4424C18.0148 5.26366 18.0756 5.2283 18.2347 5.29705C18.8034 5.54454 19.373 5.78811 19.9446 6.02971C20.0526 6.07587 20.1106 6.15051 20.1459 6.25756C20.4072 7.04718 20.6724 7.83582 20.9326 8.62642C20.9621 8.71678 21.0397 8.84838 20.8148 8.82972V8.82874Z" fill="#1E5DAB"/>
</svg>
