<svg width="24" height="24" viewBox="0 0 24 24" fill="none" xmlns="http://www.w3.org/2000/svg">
<path d="M14.6837 16.1757C14.7835 16.5012 14.8112 16.8095 14.7017 17.126C14.4339 17.903 13.4866 18.1933 12.8281 17.699C12.627 17.5483 12.4643 17.3577 12.2865 17.183C12.1718 17.0705 12.0622 16.952 11.934 16.8462C12.0135 17.0982 12.0487 17.3487 11.9925 17.6008C11.8912 18.0568 11.6175 18.3696 11.1697 18.5128C10.7031 18.6621 10.2876 18.5428 9.94558 18.2098C9.30203 17.5828 8.67198 16.9422 8.03668 16.3077C6.78784 15.0596 5.53749 13.813 4.29239 12.5611C4.17313 12.4411 4.05237 12.3826 3.88211 12.3894C3.60834 12.4006 3.33307 12.3954 3.05855 12.3916C2.62801 12.3864 2.39999 12.1561 2.39999 11.7271C2.39999 9.90592 2.39999 8.08478 2.39999 6.26288C2.39999 5.8316 2.62501 5.60658 3.0593 5.60658C5.43098 5.60508 7.80192 5.60583 10.1736 5.60658C10.2314 5.60658 10.3161 5.57508 10.3409 5.64484C10.3634 5.71009 10.2831 5.74759 10.2411 5.7896C9.55405 6.4789 8.88575 7.18846 8.17169 7.84851C7.37738 8.58281 7.32788 9.85416 8.40196 10.6132C9.61931 11.4735 11.2124 11.361 12.2768 10.317C12.7223 9.88042 13.1588 9.43488 13.6021 8.99535C13.8429 8.75683 14.0432 8.75458 14.2809 8.99235C15.9761 10.6852 17.6719 12.3774 19.3633 14.074C19.7871 14.4993 19.8524 15.1278 19.5388 15.6011C19.2103 16.0962 18.611 16.2844 18.0567 16.0661C17.903 16.0054 17.7717 15.9116 17.6577 15.7946C17.5017 15.6341 17.3472 15.4714 17.1761 15.2928C17.1364 15.3813 17.1806 15.4263 17.1949 15.4721C17.3592 16.0009 17.1536 16.5664 16.6886 16.8605C16.2176 17.1575 15.6228 17.1072 15.2185 16.7255C15.0332 16.5499 14.8615 16.3602 14.6845 16.1764L14.6837 16.1757Z" fill="#1E5DAB"/>
<path d="M21.6 9.00226C21.6 9.90008 21.6 10.7987 21.6 11.6965C21.6 12.1698 21.3772 12.3903 20.8979 12.3925C20.6549 12.394 20.4104 12.4015 20.1681 12.3895C20.0031 12.3813 19.9214 12.4413 19.8741 12.601C19.7601 12.9843 19.7743 12.9551 19.5088 12.6896C18.0125 11.1947 16.5176 9.69832 15.0205 8.20495C14.5389 7.72491 13.9164 7.60715 13.3186 7.87267C13.1206 7.96043 12.9616 8.09994 12.8101 8.2492C12.354 8.70224 11.9077 9.16503 11.4419 9.60756C10.7256 10.2886 9.56455 10.2714 8.86399 9.58356C8.60072 9.32554 8.58347 8.98351 8.84374 8.71949C9.62005 7.93418 10.3956 7.14737 11.1892 6.38006C11.7315 5.85427 12.402 5.60675 13.1596 5.606C15.7435 5.606 18.3267 5.606 20.9107 5.606C21.384 5.606 21.6 5.82126 21.6 6.28855C21.6 7.19312 21.6 8.09769 21.6 9.00151V9.00226Z" fill="#1E5DAB"/>
</svg>
