<svg width="24" height="24" viewBox="0 0 24 24" fill="none" xmlns="http://www.w3.org/2000/svg">
<path d="M10.55 14.83C10.55 13.2 10.55 11.56 10.55 9.93C10.55 8.62 11.47 7.7 12.78 7.7C15.1 7.7 17.43 7.7 19.75 7.7C21.07 7.7 21.98 8.62 21.99 9.94C21.99 11.95 21.99 13.96 21.99 15.98C21.99 16.28 21.99 16.29 21.68 16.29C20.63 16.29 19.57 16.29 18.52 16.29C17.77 16.29 17.14 16.56 16.69 17.18C16.39 17.59 16.29 18.05 16.29 18.54C16.29 19.59 16.29 20.65 16.29 21.7C16.29 21.93 16.22 21.99 16 21.99C14.9 21.98 13.8 21.99 12.7 21.99C11.49 21.99 10.55 21.05 10.55 19.84C10.55 18.17 10.55 16.5 10.55 14.83ZM16.26 11.98C16.96 11.98 17.67 11.98 18.37 11.98C18.78 11.98 19.1 11.66 19.1 11.29C19.1 10.93 18.79 10.6 18.4 10.6C16.98 10.6 15.57 10.6 14.15 10.6C13.82 10.6 13.58 10.79 13.49 11.07C13.34 11.53 13.67 11.98 14.19 11.98C14.88 11.98 15.57 11.98 16.26 11.98ZM15.54 14.83C16.01 14.83 16.49 14.83 16.96 14.83C17.37 14.82 17.69 14.49 17.68 14.13C17.68 13.77 17.36 13.45 16.96 13.45C16.03 13.45 15.09 13.45 14.16 13.45C13.83 13.45 13.59 13.64 13.49 13.91C13.33 14.37 13.66 14.82 14.18 14.83C14.63 14.84 15.08 14.83 15.54 14.83Z" fill="#0A95E3"/>
<path d="M9.16 17.73C9.16 18.66 9.16 19.59 9.16 20.51C9.16 21.39 8.55 22 7.68 22C6.28 22 4.88 22 3.47 22C2.61 22 2 21.39 2 20.52C2 18.64 2 16.77 2 14.89C2 14.03 2.61 13.42 3.47 13.41C4.88 13.41 6.29 13.41 7.7 13.41C8.54 13.41 9.16 14.03 9.16 14.88C9.16 15.83 9.16 16.78 9.16 17.73ZM4.88 17.69C4.88 17.91 4.88 18.14 4.88 18.36C4.89 18.78 5.19 19.11 5.57 19.11C5.95 19.11 6.26 18.78 6.27 18.36C6.27 17.92 6.27 17.48 6.27 17.05C6.27 16.63 5.96 16.3 5.58 16.3C5.19 16.3 4.9 16.61 4.88 17.05C4.88 17.26 4.88 17.48 4.88 17.7V17.69Z" fill="#0A95E3"/>
<path d="M2 7.01C2 5.84 2 4.68 2 3.51C2 2.61 2.6 2 3.51 2C4.9 2 6.29 2 7.67 2C7.83 2 8 2.01 8.15 2.06C8.31 2.11 8.34 2.17 8.22 2.3C7.74 2.82 7.27 3.34 6.79 3.86C6.25 4.45 5.7 5.03 5.18 5.64C4.5 6.44 4.49 7.56 5.18 8.36C5.98 9.28 6.82 10.18 7.64 11.08C7.83 11.29 8.02 11.5 8.21 11.7C8.34 11.83 8.29 11.9 8.14 11.94C8 11.98 7.87 12 7.72 12C6.28 12 4.84 12 3.4 12C2.61 12 1.99 11.37 1.99 10.58C1.99 9.39 1.99 8.19 1.99 7L2 7.01Z" fill="#0A95E3"/>
<path d="M15.83 2C16.6 2 17.38 2.01 18.15 2C18.36 2 18.44 2.05 18.43 2.27C18.43 3.53 18.43 4.79 18.43 6.06C18.43 6.27 18.35 6.32 18.16 6.32C16.63 6.32 15.1 6.32 13.57 6.32C13.35 6.32 13.14 6.27 12.94 6.18C12.44 5.95 11.94 5.73 11.44 5.5C10.87 5.24 10.55 4.79 10.55 4.16C10.55 3.52 10.88 3.08 11.45 2.82C11.94 2.59 12.44 2.37 12.93 2.15C13.14 2.05 13.36 2.01 13.6 2.01C14.34 2.01 15.08 2.01 15.83 2.01V2Z" fill="#0A95E3"/>
<path d="M9.11 3.39C9.18 3.47 9.16 3.55 9.16 3.62C9.16 5.87 9.16 8.13 9.16 10.38C9.16 10.4 9.16 10.43 9.16 10.45C9.16 10.5 9.19 10.58 9.11 10.61C9.05 10.63 9.03 10.56 8.99 10.52C8.42 9.9 7.85 9.27 7.28 8.65C6.97 8.3 6.65 7.96 6.34 7.61C5.96 7.18 5.95 6.83 6.34 6.41C7.24 5.42 8.14 4.44 9.04 3.45C9.06 3.43 9.09 3.41 9.12 3.39H9.11Z" fill="#0A95E3"/>
<path d="M19.82 4.16C19.82 3.52 19.82 2.88 19.82 2.24C19.82 2.06 19.88 1.99 20.06 2C20.35 2.02 20.64 1.97 20.92 2.05C21.54 2.21 21.98 2.76 21.98 3.4C21.98 3.9 21.98 4.41 21.98 4.91C21.97 5.67 21.35 6.29 20.59 6.31C20.4 6.31 20.22 6.31 20.03 6.31C19.87 6.31 19.81 6.25 19.81 6.09C19.81 5.44 19.81 4.8 19.81 4.15L19.82 4.16Z" fill="#0A95E3"/>
<path d="M17.68 19.84C17.68 19.37 17.68 18.91 17.68 18.44C17.68 17.98 17.97 17.69 18.43 17.69C19.39 17.69 20.34 17.69 21.3 17.69C21.36 17.69 21.45 17.66 21.48 17.73C21.51 17.8 21.44 17.85 21.39 17.9C20.23 19.06 19.06 20.23 17.9 21.39C17.85 21.44 17.8 21.52 17.72 21.49C17.64 21.46 17.68 21.36 17.68 21.29C17.68 20.81 17.68 20.33 17.68 19.84Z" fill="#0A95E3"/>
</svg>
