<?xml version="1.0" encoding="utf-8"?>
<!-- Generator: Adobe Illustrator 27.3.1, SVG Export Plug-In . SVG Version: 6.00 Build 0)  -->
<svg version="1.1" id="Layer_2_00000091724394349950467900000005344657844375271339_"
	 xmlns="http://www.w3.org/2000/svg" xmlns:xlink="http://www.w3.org/1999/xlink" x="0px" y="0px" viewBox="0 0 194.8 48.3"
	 style="enable-background:new 0 0 194.8 48.3;" xml:space="preserve">
<style type="text/css">
	.st0{fill:#FFFFFF;}
	.st1{fill:url(#SVGID_1_);}
	.st2{fill:url(#SVGID_00000022539095021032408510000012128821845041075887_);}
</style>
<g id="Layer_1-2">
	<g>
		<path class="st0" d="M55.9,22.6c0,4.1,3.3,7.4,7.3,7.4h5.1c1.6,0,2.9,1.3,2.9,2.9c0,1.6-1.3,2.9-2.9,2.9H55.9v4.4h12.5
			c4,0,7.4-3.3,7.4-7.4s-3.3-7.3-7.4-7.3h-5.1c-1.6,0-2.9-1.3-2.9-2.9c0-1.6,1.3-2.9,2.9-2.9h12.5v-4.4H63.2
			C59.2,15.2,55.9,18.5,55.9,22.6z"/>
		<path class="st0" d="M187.3,15.3c-6.8,0-12.3,5.5-12.3,12.3v12.6h4.4V27.6c0-4.4,3.5-7.9,7.9-7.9h7.5v-4.4H187.3z"/>
		<path class="st0" d="M85.2,27.5v-7.8h10.6v-4.4H85.2V8h-4.4v7.2v4.4v7.8c0,7,5.7,12.7,12.7,12.7H97l0,0v-4.4h-3.5
			C88.9,35.8,85.2,32.1,85.2,27.5z"/>
		<path class="st0" d="M133,27.5V8h-4.4v19.5c0,7,5.7,12.7,12.7,12.7h2.2v-4.4h-2.2C136.7,35.8,133,32.1,133,27.5z"/>
		<path class="st0" d="M157.5,15.3c-6.9,0-12.5,5.6-12.5,12.5s5.6,12.5,12.5,12.5c3.1,0,5.9-1.1,8.1-3v3h4.4V27.7h0
			C170,20.8,164.4,15.3,157.5,15.3z M157.5,35.8c-4.4,0-8.1-3.6-8.1-8s3.6-8,8.1-8s8,3.6,8,8S162,35.8,157.5,35.8z"/>
		<path class="st0" d="M112,15.3c-6.9,0-12.5,5.6-12.5,12.5s5.6,12.5,12.5,12.5h5.4v-4.4H112c-3.7,0-6.8-2.5-7.7-5.8h20.2v-2.2
			C124.5,20.8,118.8,15.3,112,15.3z M104.2,25.5c1-3.4,4.1-5.8,7.7-5.8s6.8,2.5,7.8,5.8H104.2z"/>
	</g>
	<g>
		
			<linearGradient id="SVGID_1_" gradientUnits="userSpaceOnUse" x1="-104.9975" y1="-133.7374" x2="-75.5075" y2="-104.2474" gradientTransform="matrix(1 0 0 -1 112.37 -84.2149)">
			<stop  offset="0" style="stop-color:#FFFFFF"/>
			<stop  offset="0.11" style="stop-color:#FFFFFF;stop-opacity:0.98"/>
			<stop  offset="0.25" style="stop-color:#FFFFFF;stop-opacity:0.91"/>
			<stop  offset="0.41" style="stop-color:#FFFFFF;stop-opacity:0.81"/>
			<stop  offset="0.59" style="stop-color:#FFFFFF;stop-opacity:0.66"/>
			<stop  offset="0.78" style="stop-color:#FFFFFF;stop-opacity:0.47"/>
			<stop  offset="0.97" style="stop-color:#FFFFFF;stop-opacity:0.24"/>
			<stop  offset="1" style="stop-color:#FFFFFF;stop-opacity:0.2"/>
		</linearGradient>
		<path class="st1" d="M0,42.2l29.5-29.5c8.1,8.1,8.1,21.4,0,29.5S8.1,50.3,0,42.2z"/>
		
			<linearGradient id="SVGID_00000101800729781995297320000015290772732865064078_" gradientUnits="userSpaceOnUse" x1="-113.1925" y1="-112.4424" x2="-83.7025" y2="-82.9524" gradientTransform="matrix(1 0 0 -1 112.37 -84.2149)">
			<stop  offset="0" style="stop-color:#FFFFFF;stop-opacity:0.2"/>
			<stop  offset="3.000000e-02" style="stop-color:#FFFFFF;stop-opacity:0.24"/>
			<stop  offset="0.22" style="stop-color:#FFFFFF;stop-opacity:0.47"/>
			<stop  offset="0.41" style="stop-color:#FFFFFF;stop-opacity:0.66"/>
			<stop  offset="0.59" style="stop-color:#FFFFFF;stop-opacity:0.81"/>
			<stop  offset="0.75" style="stop-color:#FFFFFF;stop-opacity:0.91"/>
			<stop  offset="0.89" style="stop-color:#FFFFFF;stop-opacity:0.98"/>
			<stop  offset="1" style="stop-color:#FFFFFF"/>
		</linearGradient>
		<path style="fill:url(#SVGID_00000101800729781995297320000015290772732865064078_);" d="M36,6.1L6.6,35.6
			c-8.1-8.1-8.1-21.4,0-29.5S27.9-2,36,6.1z"/>
		<path class="st0" d="M29.5,12.7L13.1,29c-4.5-4.5-4.5-11.9,0-16.4S25,8.1,29.5,12.7z"/>
		<path class="st0" d="M6.6,35.6l16.4-16.4c4.5,4.5,4.5,11.9,0,16.4S11.1,40.1,6.6,35.6L6.6,35.6z"/>
	</g>
</g>
</svg>
