<?xml version="1.0" encoding="UTF-8"?><svg id="Layer_2" xmlns="http://www.w3.org/2000/svg" xmlns:xlink="http://www.w3.org/1999/xlink" viewBox="0 0 194.84 48.26"><defs><style>.cls-1{fill:url(#linear-gradient);}.cls-2{fill:#fff;}.cls-3{fill:url(#linear-gradient-2);}</style><linearGradient id="linear-gradient" x1="-75.51" y1="291.32" x2="-105" y2="320.81" gradientTransform="translate(112.37 -271.28)" gradientUnits="userSpaceOnUse"><stop offset="0" stop-color="#fff" stop-opacity=".2"/><stop offset=".03" stop-color="#fff" stop-opacity=".24"/><stop offset=".22" stop-color="#fff" stop-opacity=".47"/><stop offset=".41" stop-color="#fff" stop-opacity=".66"/><stop offset=".59" stop-color="#fff" stop-opacity=".81"/><stop offset=".75" stop-color="#fff" stop-opacity=".91"/><stop offset=".89" stop-color="#fff" stop-opacity=".98"/><stop offset="1" stop-color="#fff"/></linearGradient><linearGradient id="linear-gradient-2" x1="-113.19" y1="299.51" x2="-83.7" y2="270.02" xlink:href="#linear-gradient"/></defs><g id="Layer_1-2"><g><path class="cls-2" d="M68.35,40.21h-12.48v-4.43h12.48c1.61,0,2.92-1.31,2.92-2.92s-1.31-2.92-2.92-2.92h-5.13c-4.05,0-7.35-3.3-7.35-7.35s3.3-7.35,7.35-7.35h12.48v4.43h-12.48c-1.61,0-2.92,1.31-2.92,2.92s1.31,2.92,2.92,2.92h5.13c4.05,0,7.35,3.3,7.35,7.35s-3.3,7.35-7.35,7.35Z"/><path class="cls-2" d="M179.44,40.21h-4.43v-12.63c0-6.8,5.53-12.33,12.33-12.33h7.5v4.43h-7.5c-4.36,0-7.9,3.54-7.9,7.9v12.63Z"/><path class="cls-2" d="M96.98,40.21h-3.5c-7,0-12.7-5.7-12.7-12.7V8.04h4.43V27.52c0,4.56,3.71,8.27,8.27,8.27h3.5v4.43Z"/><path class="cls-2" d="M143.5,40.21h-2.21c-7,0-12.7-5.7-12.7-12.7V8.04h4.43V27.52c0,4.56,3.71,8.27,8.27,8.27h2.21v4.43Z"/><g><rect class="cls-2" x="165.59" y="27.72" width="4.43" height="12.5"/><path class="cls-2" d="M157.53,40.21c-6.88,0-12.48-5.6-12.48-12.48s5.6-12.48,12.48-12.48,12.48,5.6,12.48,12.48-5.6,12.48-12.48,12.48Zm0-20.53c-4.44,0-8.05,3.61-8.05,8.05s3.61,8.05,8.05,8.05,8.05-3.61,8.05-8.05-3.61-8.05-8.05-8.05Z"/></g><rect class="cls-2" x="80.78" y="15.25" width="15.05" height="4.43"/><path class="cls-2" d="M117.36,40.21h-5.39c-6.88,0-12.48-5.6-12.48-12.48s5.6-12.48,12.48-12.48,12.48,5.6,12.48,12.48v2.21h-20.22c.96,3.37,4.07,5.84,7.74,5.84h5.39v4.43Zm-13.14-14.69h15.49c-.96-3.37-4.07-5.84-7.75-5.84s-6.78,2.47-7.74,5.84Z"/></g><g><path class="cls-1" d="M0,42.15L29.49,12.66c8.14,8.14,8.14,21.35,0,29.49-8.14,8.14-21.35,8.14-29.49,0Z"/><path class="cls-3" d="M36.04,6.11L6.55,35.6c-8.14-8.14-8.14-21.35,0-29.49,8.14-8.14,21.35-8.14,29.49,0Z"/><path class="cls-2" d="M29.49,12.66L13.11,29.04c-4.52-4.52-4.52-11.86,0-16.38,4.52-4.52,11.86-4.52,16.38,0Z"/><path class="cls-2" d="M6.55,35.6L22.94,19.21c4.52,4.52,4.52,11.86,0,16.38-4.52,4.52-11.86,4.52-16.38,0Z"/></g></g></svg>