<svg width="1439" height="1266" viewBox="0 0 1439 1266" fill="none" xmlns="http://www.w3.org/2000/svg">
<g opacity="0.8">
<circle cx="719" cy="633" r="359" stroke="#F3F3F3" stroke-width="5"/>
<circle cx="719" cy="633" r="498" stroke="#F3F3F3" stroke-width="5"/>
<circle cx="719" cy="633" r="630" stroke="#EFEFEF" stroke-width="5"/>
<circle cx="1254" cy="966" r="57" fill="#F7F7F7"/>
<path d="M1288.83 964.701L1280.48 962.012C1275.15 960.251 1272.02 955.933 1270.55 950.508L1266.88 932.626C1266.79 932.273 1266.55 931.8 1265.84 931.8C1265.23 931.8 1264.88 932.273 1264.79 932.626L1261.12 950.514C1259.64 955.939 1256.52 960.257 1251.19 962.018L1242.85 964.707C1241.67 965.09 1241.65 966.755 1242.82 967.156L1251.22 970.048C1256.54 971.815 1259.64 976.127 1261.12 981.528L1264.79 999.212C1264.89 999.565 1265.09 1000.2 1265.84 1000.2C1266.64 1000.2 1266.79 999.565 1266.89 999.212L1270.57 981.528C1272.04 976.121 1275.14 971.809 1280.46 970.048L1288.86 967.156C1290.02 966.749 1290 965.084 1288.83 964.701Z" fill="#FDD835"/>
<path d="M1289.62 965.449C1289.48 965.12 1289.23 964.832 1288.83 964.701L1280.48 962.012C1275.15 960.251 1272.02 955.933 1270.55 950.508L1266.88 932.626C1266.83 932.423 1266.64 932.052 1266.42 931.944L1267.6 949.891C1268.48 958.083 1269.24 961.94 1275.78 963.066C1281.39 964.036 1287.89 965.15 1289.62 965.449Z" fill="#FFEE58"/>
<path d="M1289.63 966.383L1275.17 969.701C1270.07 970.994 1267.26 973.947 1267.26 981.672L1265.84 1000.2C1266.33 1000.15 1266.72 999.889 1266.89 999.212L1270.57 981.528C1272.04 976.121 1275.14 971.809 1280.46 970.048L1288.86 967.156C1289.26 967.012 1289.51 966.719 1289.63 966.383Z" fill="#F4B400"/>
<path d="M1241.05 980.259C1236.06 978.612 1235.61 976.755 1234.77 973.623L1232.68 966.293C1232.55 965.82 1231.32 965.82 1231.19 966.293L1229.77 973.066C1228.92 976.186 1227.13 978.666 1224.06 979.678L1219.17 981.798C1218.5 982.019 1218.49 982.977 1219.16 983.205L1224.08 984.947C1227.14 985.96 1228.92 988.439 1229.77 991.547L1231.19 998.026C1231.32 998.499 1232.55 998.499 1232.68 998.026L1234.34 991.577C1235.19 988.451 1236.48 985.966 1240.63 984.947L1245.25 983.205C1245.93 982.971 1245.92 982.013 1245.24 981.792L1241.05 980.259Z" fill="#FDD835"/>
<path d="M1233.07 973.516C1233.58 978.222 1233.84 979.528 1237.65 980.504L1245.6 982.055C1245.52 981.941 1245.4 981.846 1245.24 981.798L1241.04 980.259C1236.67 978.761 1235.46 976.857 1234.64 973.048C1233.82 969.24 1232.94 966.755 1232.94 966.755C1232.64 965.934 1232.2 965.976 1232.2 965.976L1233.07 973.516Z" fill="#FFEE58"/>
<path d="M1233.22 989.948C1233.22 985.51 1235.64 983.313 1239.5 983.313L1245.5 983.067C1245.5 983.067 1245.15 983.528 1244.55 983.672L1240.63 984.948C1237.31 986.283 1235.79 986.954 1234.76 991.499C1234.76 991.499 1233.43 996.787 1233.18 997.344C1232.83 998.122 1232.42 998.284 1232.42 998.284L1233.22 989.948Z" fill="#F4B400"/>
<path d="M1251.79 945.124C1252.12 945.011 1252.11 944.531 1251.77 944.436L1247.15 943.19C1246.18 942.927 1245.42 942.178 1245.15 941.214L1243.32 933.698C1243.24 933.333 1242.71 933.333 1242.62 933.704L1240.91 941.19C1240.65 942.184 1239.87 942.951 1238.88 943.208L1234.28 944.4C1233.94 944.49 1233.92 944.969 1234.25 945.088L1239.1 946.765C1239.97 947.065 1240.64 947.771 1240.9 948.652L1242.63 955.592C1242.72 955.951 1243.24 955.957 1243.32 955.592L1245.12 948.628C1245.38 947.747 1246.06 947.047 1246.94 946.753L1251.79 945.124Z" fill="#F4B400" stroke="#F4B400" stroke-width="1.20896" stroke-miterlimit="10"/>
<path d="M397.389 503.832C413.62 503.832 426.778 490.674 426.778 474.443C426.778 458.212 413.62 445.054 397.389 445.054C381.158 445.054 368 458.212 368 474.443C368 490.674 381.158 503.832 397.389 503.832Z" fill="url(#paint0_radial_1469_440)"/>
<path opacity="0.2" d="M397.389 446.528C412.781 446.528 425.305 459.051 425.305 474.443C425.305 489.835 412.781 502.359 397.389 502.359C381.997 502.359 369.474 489.835 369.474 474.443C369.474 459.051 381.997 446.528 397.389 446.528ZM397.389 445.054C381.157 445.054 368 458.216 368 474.443C368 490.671 381.157 503.832 397.389 503.832C413.622 503.832 426.778 490.676 426.778 474.443C426.778 458.211 413.617 445.054 397.389 445.054Z" fill="#434343"/>
<path d="M397.389 494.911C408.693 494.911 417.856 485.747 417.856 474.443C417.856 463.139 408.693 453.976 397.389 453.976C386.085 453.976 376.922 463.139 376.922 474.443C376.922 485.747 386.085 494.911 397.389 494.911Z" fill="#FEFCE9"/>
<path d="M397.389 487.566C404.636 487.566 410.512 481.691 410.512 474.443C410.512 467.196 404.636 461.321 397.389 461.321C390.142 461.321 384.267 467.196 384.267 474.443C384.267 481.691 390.142 487.566 397.389 487.566Z" fill="url(#paint1_radial_1469_440)"/>
<path d="M397.389 478.379C399.563 478.379 401.325 476.617 401.325 474.443C401.325 472.27 399.563 470.508 397.389 470.508C395.216 470.508 393.454 472.27 393.454 474.443C393.454 476.617 395.216 478.379 397.389 478.379Z" fill="#FEFCE9"/>
<path d="M420.013 451.967L420.185 447.82C420.264 445.953 418.603 444.632 416.761 445.093L413.341 445.943C412.162 446.238 411.219 447.196 410.949 448.38L407.22 464.76L407.249 464.745L420.023 451.971L420.013 451.967Z" fill="#09BCD4"/>
<path d="M420.018 451.967L424.164 451.795C426.031 451.716 427.353 453.377 426.891 455.219L426.041 458.638C425.746 459.817 424.788 460.761 423.604 461.031L407.225 464.76L407.239 464.73L420.013 451.957L420.018 451.967Z" fill="#38A4DD"/>
<path d="M398.043 474.998C397.355 475.613 396.397 474.655 397.006 473.967L415.444 453.603C416.255 452.792 417.572 452.792 418.382 453.603C419.193 454.413 419.193 455.73 418.382 456.541L398.043 474.998Z" fill="#1B87C9"/>
<path opacity="0.2" d="M417.493 445.983C417.979 445.983 418.422 446.164 418.741 446.498C419.06 446.828 419.222 447.285 419.203 447.781L419.031 451.917C419.021 452.109 419.07 452.296 419.163 452.453C419.208 452.527 419.257 452.59 419.316 452.649C419.497 452.836 419.753 452.949 420.018 452.949H420.058L424.194 452.777H424.278C424.828 452.777 425.309 453.003 425.629 453.411C425.963 453.833 426.071 454.408 425.929 454.978L425.079 458.398C424.877 459.208 424.194 459.881 423.379 460.068L409.799 463.163C409.632 463.202 409.48 463.281 409.357 463.394L401.162 470.842L408.581 462.647C408.694 462.524 408.773 462.372 408.812 462.205L411.912 448.596C412.099 447.781 412.767 447.098 413.582 446.896L417.002 446.046C417.164 446.002 417.331 445.983 417.493 445.983ZM417.493 445C417.252 445 417.007 445.029 416.761 445.093L413.342 445.943C412.162 446.238 411.219 447.196 410.949 448.38L407.849 461.989L397.006 473.962C396.529 474.497 397.001 475.19 397.556 475.19C397.718 475.19 397.885 475.131 398.038 474.994L410.02 464.126L423.6 461.031C424.779 460.761 425.742 459.817 426.037 458.638L426.887 455.219C427.334 453.416 426.081 451.795 424.283 451.795C424.243 451.795 424.199 451.795 424.155 451.8L420.018 451.971H420.008V451.962L420.18 447.825C420.249 446.204 419.021 445 417.493 445Z" fill="#434343"/>
<circle cx="312" cy="918" r="45" fill="#F7F7F7"/>
<path d="M290.885 931.674C286.799 935.76 286.579 943.207 286.579 943.207C286.579 943.207 294.022 942.988 298.112 938.902C302.203 934.816 303.896 929.886 301.899 927.893C299.901 925.895 294.971 927.588 290.885 931.674Z" fill="url(#paint2_linear_1469_440)"/>
<path opacity="0.2" d="M299.566 928.053C300.28 928.053 300.825 928.238 301.189 928.597C302.563 929.971 301.344 934.251 297.403 938.197C294.556 941.044 289.816 941.884 287.668 942.123C287.908 939.976 288.747 935.235 291.589 932.388C294.221 929.751 297.353 928.053 299.566 928.053ZM299.566 927.054C297.163 927.054 293.807 928.752 290.885 931.679C286.799 935.765 286.579 943.212 286.579 943.212C286.579 943.212 294.022 942.992 298.112 938.907C302.203 934.821 303.896 929.891 301.899 927.898C301.329 927.318 300.525 927.054 299.566 927.054Z" fill="#424242"/>
<path d="M292.123 933.113C289.551 935.685 289.411 940.37 289.411 940.37C289.411 940.37 294.096 940.23 296.669 937.658C299.241 935.086 300.31 931.979 299.051 930.725C297.793 929.471 294.701 930.535 292.123 933.113Z" fill="url(#paint3_linear_1469_440)"/>
<path d="M297.398 933.158C299.846 935.77 303.057 935.495 303.322 935.066L305.56 931.429C305.695 931.209 305.57 930.86 305.475 930.77L299.436 924.731C299.341 924.636 299.006 924.526 298.787 924.661L295.15 926.899C294.726 927.164 294.246 929.786 297.398 933.158Z" fill="#546E7A"/>
<path d="M313.841 939.801C313.342 940.205 312.673 940.115 312.588 939.516C312.353 937.858 312.508 934.526 310.42 932.438C308.382 930.4 305.07 930.101 305.07 930.101L317.538 923.957C317.538 923.957 319.885 927.578 318.592 932.733C317.513 936.994 315.67 938.307 313.841 939.801Z" fill="#0288D1"/>
<path opacity="0.2" d="M316.833 925.97C316.923 926.215 317.018 926.494 317.103 926.804C317.442 928.043 317.727 930.016 317.133 932.363C316.378 935.37 315.25 936.659 313.926 937.788C313.756 935.88 313.386 933.282 311.473 931.374C310.774 930.675 309.955 930.146 309.151 929.751L316.833 925.97ZM317.532 923.957L305.065 930.101C305.065 930.101 308.382 930.405 310.414 932.438C312.502 934.526 312.348 937.858 312.582 939.516C312.632 939.871 312.892 940.05 313.197 940.05C313.406 940.05 313.636 939.966 313.836 939.801C315.664 938.307 317.507 936.994 318.581 932.733C319.885 927.573 317.532 923.957 317.532 923.957Z" fill="#424242"/>
<path d="M290.135 916.809C289.646 917.229 289.821 917.978 290.42 918.063C292.078 918.298 295.41 918.143 297.498 920.231C299.536 922.269 299.96 925.156 299.96 925.156L305.984 912.404C305.984 912.404 302.798 910.91 298.162 912.114C294.966 912.948 291.794 915.381 290.135 916.809Z" fill="#0288D1"/>
<path opacity="0.2" d="M301.759 913.143C302.593 913.143 303.312 913.233 303.881 913.343L300.135 921.285C299.736 920.57 299.221 919.836 298.557 919.177C296.784 917.404 294.426 916.959 292.568 916.769C294.181 915.54 296.374 914.132 298.532 913.567C299.611 913.283 300.695 913.143 301.759 913.143ZM301.759 911.644C300.705 911.644 299.491 911.769 298.162 912.114C294.965 912.948 291.799 915.381 290.14 916.809C289.651 917.229 289.826 917.978 290.425 918.063C292.083 918.298 295.415 918.143 297.503 920.231C299.541 922.269 299.965 925.156 299.965 925.156L305.984 912.404C305.984 912.404 304.366 911.644 301.759 911.644Z" fill="#424242"/>
<path opacity="0.2" d="M298.927 926.339L303.882 931.294L302.318 933.837C302.268 933.842 302.213 933.842 302.153 933.842C301.669 933.842 299.981 933.717 298.492 932.129C296.609 930.116 296.314 928.542 296.339 927.928L298.927 926.339ZM299.032 924.596C298.947 924.596 298.862 924.616 298.787 924.656L295.151 926.894C294.721 927.159 294.241 929.781 297.393 933.153C298.997 934.866 300.93 935.34 302.148 935.34C302.788 935.34 303.227 935.21 303.317 935.061L305.555 931.424C305.69 931.205 305.565 930.855 305.47 930.765L299.436 924.731C299.376 924.671 299.206 924.596 299.032 924.596Z" fill="#424242"/>
<path d="M321.803 895.751C323.826 896.68 326.554 898.278 329.156 900.88C330.075 901.799 330.859 902.738 331.538 903.658C332.852 905.431 333.751 907.124 334.341 908.448C333.027 911.899 330.549 915.915 328.127 918.338C318.232 928.233 307.303 933.882 301.649 929.881C301.319 929.646 300.995 929.431 300.7 929.167C295.85 924.806 301.404 912.324 311.494 902.234C314.026 899.702 318.247 897.114 321.803 895.751Z" fill="url(#paint4_radial_1469_440)"/>
<path d="M319.171 914.526C321.626 914.526 323.617 912.536 323.617 910.081C323.617 907.626 321.626 905.635 319.171 905.635C316.716 905.635 314.726 907.626 314.726 910.081C314.726 912.536 316.716 914.526 319.171 914.526Z" fill="#455A64"/>
<path opacity="0.2" d="M319.171 906.634C320.09 906.634 320.959 906.994 321.608 907.643C322.258 908.293 322.617 909.162 322.617 910.081C322.617 911 322.258 911.869 321.608 912.518C320.959 913.168 320.09 913.527 319.171 913.527C318.252 913.527 317.383 913.168 316.733 912.518C315.39 911.175 315.39 908.987 316.733 907.643C317.383 906.994 318.247 906.634 319.171 906.634ZM319.171 905.635C318.032 905.635 316.893 906.07 316.024 906.939C314.286 908.677 314.286 911.49 316.024 913.228C316.893 914.097 318.032 914.531 319.171 914.531C320.31 914.531 321.448 914.097 322.317 913.228C324.056 911.49 324.056 908.677 322.317 906.939C321.448 906.07 320.31 905.635 319.171 905.635Z" fill="#424242"/>
<path d="M310 923.033C311.777 923.033 313.217 921.593 313.217 919.816C313.217 918.04 311.777 916.599 310 916.599C308.224 916.599 306.784 918.04 306.784 919.816C306.784 921.593 308.224 923.033 310 923.033Z" fill="#455A64"/>
<path d="M321.803 895.751C320.879 900.311 328.931 909.242 334.341 908.448C336.024 904.097 336.713 901.145 337.173 896.065C337.408 893.493 336.653 892.759 334.271 893.038C327.952 893.778 325.455 894.257 321.803 895.751Z" fill="#E53935"/>
<path opacity="0.2" d="M335.125 894.482C335.424 894.482 335.574 894.517 335.629 894.537C335.669 894.627 335.769 894.976 335.684 895.93C335.24 900.85 334.6 903.648 332.947 907.913C331.678 911.235 329.261 915.086 327.068 917.279C319.421 924.926 311.389 929.681 306.104 929.681C304.681 929.681 303.472 929.336 302.513 928.657L302.348 928.542C302.093 928.367 301.879 928.213 301.699 928.053C300.89 927.323 300.46 926.21 300.42 924.741C300.28 919.397 305.265 910.575 312.548 903.293C314.83 901.01 318.856 898.483 322.333 897.154L322.363 897.139C325.894 895.696 328.352 895.241 334.435 894.527C334.7 894.497 334.93 894.482 335.125 894.482ZM335.125 892.983C334.865 892.983 334.585 893.003 334.271 893.038C327.952 893.778 325.455 894.257 321.803 895.751C318.247 897.109 314.026 899.697 311.494 902.229C301.404 912.319 295.85 924.801 300.7 929.162C300.99 929.421 301.314 929.641 301.649 929.876C302.898 930.76 304.406 931.175 306.104 931.175C312.088 931.175 320.42 926.045 328.132 918.338C330.554 915.915 333.032 911.899 334.346 908.448C336.029 904.097 336.718 901.145 337.178 896.065C337.372 893.833 336.833 892.983 335.125 892.983Z" fill="#424242"/>
<path opacity="0.2" d="M310.001 917.598C310.595 917.598 311.149 917.828 311.569 918.248C311.989 918.667 312.218 919.222 312.218 919.816C312.218 920.41 311.989 920.965 311.569 921.384C311.149 921.804 310.595 922.034 310.001 922.034C309.406 922.034 308.852 921.804 308.432 921.384C308.013 920.965 307.783 920.41 307.783 919.816C307.783 919.222 308.013 918.667 308.432 918.248C308.857 917.828 309.411 917.598 310.001 917.598ZM310.001 916.599C309.176 916.599 308.357 916.914 307.728 917.543C306.474 918.797 306.474 920.835 307.728 922.089C308.357 922.718 309.176 923.033 310.001 923.033C310.825 923.033 311.644 922.718 312.273 922.089C313.527 920.835 313.527 918.797 312.273 917.543C311.649 916.914 310.825 916.599 310.001 916.599Z" fill="#424242"/>
<circle cx="1156" cy="395" r="45" fill="#F7F7F7"/>
<path d="M1174.65 403.405H1137.18L1132.87 410.715H1179L1174.65 403.405Z" fill="url(#paint5_linear_1469_440)"/>
<path opacity="0.2" d="M1138.68 402.367H1173.15L1177.65 409.946H1134.22L1138.68 402.367ZM1138.22 401.597L1132.87 410.715H1179L1173.58 401.597H1138.22Z" fill="#424242"/>
<path d="M1141.64 404.521H1139.18L1139.49 403.867H1141.99L1141.64 404.521Z" fill="#F5F5F5"/>
<path d="M1145.53 404.521H1143.03L1143.34 403.867H1145.87L1145.53 404.521Z" fill="#F5F5F5"/>
<path d="M1149.22 404.521H1146.72L1147.07 403.867H1149.57L1149.22 404.521Z" fill="#F5F5F5"/>
<path d="M1152.88 404.521H1150.41L1150.8 403.867H1153.11L1152.88 404.521Z" fill="#F5F5F5"/>
<path d="M1156.49 404.521H1154.03L1154.22 403.867H1156.3L1156.49 404.521Z" fill="#F5F5F5"/>
<path d="M1160.19 404.521H1157.72L1157.42 403.867H1159.76L1160.19 404.521Z" fill="#F5F5F5"/>
<path d="M1163.96 404.521H1161.49L1161.03 403.867H1163.5L1163.96 404.521Z" fill="#F5F5F5"/>
<path d="M1167.61 404.521H1165.15L1164.69 403.867H1167.19L1167.61 404.521Z" fill="#F5F5F5"/>
<path d="M1172.57 404.521H1168.88L1168.38 403.867H1172.23L1172.57 404.521Z" fill="#F5F5F5"/>
<path d="M1170.69 405.483H1173.15L1172.73 404.867H1170.23L1170.69 405.483Z" fill="#F5F5F5"/>
<path d="M1166.65 405.483H1169.11L1168.65 404.867H1166.15L1166.65 405.483Z" fill="#F5F5F5"/>
<path d="M1162.96 405.483H1165.42L1165 404.867H1162.53L1162.96 405.483Z" fill="#F5F5F5"/>
<path d="M1158.96 405.483H1161.46L1160.99 404.867H1158.69L1158.96 405.483Z" fill="#F5F5F5"/>
<path d="M1155.42 405.483H1157.92L1157.61 404.867H1155.53L1155.42 405.483Z" fill="#F5F5F5"/>
<path d="M1151.88 405.483H1154.34L1154.49 404.867H1152.11L1151.88 405.483Z" fill="#F5F5F5"/>
<path d="M1147.99 405.483H1150.45L1150.76 404.867H1148.37L1147.99 405.483Z" fill="#F5F5F5"/>
<path d="M1143.68 405.483H1146.14L1146.53 404.867H1144.07L1143.68 405.483Z" fill="#F5F5F5"/>
<path d="M1138.6 405.483H1142.33L1142.72 404.867H1138.99L1138.6 405.483Z" fill="#F5F5F5"/>
<path d="M1162.07 406.483H1164.57L1164.15 405.829H1161.65L1162.07 406.483Z" fill="#F5F5F5"/>
<path d="M1158.15 406.483H1160.61L1160.26 405.829H1157.96L1158.15 406.483Z" fill="#F5F5F5"/>
<path d="M1153.49 406.483H1155.95L1155.88 405.829H1153.68L1153.49 406.483Z" fill="#F5F5F5"/>
<path d="M1149.07 406.483H1151.53L1151.76 405.829H1149.38L1149.07 406.483Z" fill="#F5F5F5"/>
<path d="M1144.37 406.483H1146.87L1147.26 405.829H1144.8L1144.37 406.483Z" fill="#F5F5F5"/>
<path d="M1138.14 406.483H1143.07L1143.49 405.829H1138.49L1138.14 406.483Z" fill="#F5F5F5"/>
<path d="M1166.27 406.483H1173.69L1173.27 405.791H1165.84L1166.27 406.483Z" fill="#F5F5F5"/>
<path d="M1171.92 407.445H1174.38L1173.88 406.791H1171.42L1171.92 407.445Z" fill="#F5F5F5"/>
<path d="M1167.3 407.445H1169.77L1169.3 406.791H1166.8L1167.3 407.445Z" fill="#F5F5F5"/>
<path d="M1147.53 407.445H1164.38L1164 406.791H1147.91L1147.53 407.445Z" fill="#F5F5F5"/>
<path d="M1142.26 407.445H1144.72L1145.03 406.791H1142.6L1142.26 407.445Z" fill="#F5F5F5"/>
<path d="M1137.53 407.445H1139.99L1140.3 406.791H1137.87L1137.53 407.445Z" fill="#F5F5F5"/>
<path d="M1147.26 409.138H1164.5L1163.76 407.791H1147.99L1147.26 409.138Z" fill="#F5F5F5"/>
<path d="M1178.15 412.254H1133.68C1133.22 412.254 1132.87 411.87 1132.87 411.446V410.754H1179V411.446C1179 411.87 1178.62 412.254 1178.15 412.254Z" fill="#9E9E9E"/>
<path opacity="0.2" d="M1178.62 411.1V411.408C1178.62 411.639 1178.42 411.831 1178.19 411.831H1133.68C1133.45 411.831 1133.25 411.639 1133.25 411.408V411.1H1178.62ZM1179 410.715H1132.87V411.408C1132.87 411.87 1133.25 412.216 1133.68 412.216H1178.15C1178.62 412.216 1178.96 411.831 1178.96 411.408V410.715H1179Z" fill="#424242"/>
<path d="M1174.65 403.405H1137.18V379.436C1137.18 378.821 1137.68 378.359 1138.26 378.359H1173.54C1174.15 378.359 1174.61 378.859 1174.61 379.436L1174.65 403.405Z" fill="url(#paint6_linear_1469_440)"/>
<path opacity="0.2" d="M1173.54 379.129C1173.73 379.129 1173.84 379.283 1173.84 379.436V402.636H1137.95V379.436C1137.95 379.244 1138.1 379.129 1138.26 379.129H1173.54ZM1173.54 378.359H1138.26C1137.64 378.359 1137.18 378.859 1137.18 379.436V403.405H1174.65V379.436C1174.65 378.821 1174.15 378.359 1173.54 378.359Z" fill="#424242"/>
<path d="M1140.56 381.129H1171.23V400.327H1140.56V381.129Z" fill="#616161"/>
<circle cx="1205" cy="708" r="47" fill="#F6F6F6"/>
<path d="M1178.36 715.807V712.587H1181.4V715.807H1178.36ZM1191.65 716.083C1190.41 716.083 1189.29 715.799 1188.29 715.232C1187.31 714.649 1186.54 713.867 1185.97 712.886C1185.4 711.889 1185.12 710.77 1185.12 709.528C1185.12 708.286 1185.4 707.174 1185.97 706.193C1186.54 705.212 1187.31 704.437 1188.29 703.87C1189.29 703.303 1190.41 703.019 1191.65 703.019C1192.54 703.019 1193.37 703.18 1194.14 703.502C1194.9 703.809 1195.56 704.238 1196.11 704.79C1196.68 705.327 1197.09 705.971 1197.33 706.722L1194.69 707.872C1194.46 707.243 1194.07 706.737 1193.52 706.354C1192.98 705.971 1192.36 705.779 1191.65 705.779C1190.99 705.779 1190.4 705.94 1189.88 706.262C1189.38 706.584 1188.98 707.029 1188.69 707.596C1188.39 708.163 1188.25 708.815 1188.25 709.551C1188.25 710.287 1188.39 710.939 1188.69 711.506C1188.98 712.073 1189.38 712.518 1189.88 712.84C1190.4 713.162 1190.99 713.323 1191.65 713.323C1192.37 713.323 1193 713.131 1193.54 712.748C1194.08 712.365 1194.46 711.851 1194.69 711.207L1197.33 712.403C1197.09 713.108 1196.69 713.745 1196.14 714.312C1195.59 714.864 1194.93 715.301 1194.16 715.623C1193.39 715.93 1192.56 716.083 1191.65 716.083ZM1205.74 716.083C1204.51 716.083 1203.39 715.799 1202.38 715.232C1201.38 714.665 1200.59 713.89 1199.99 712.909C1199.41 711.928 1199.11 710.808 1199.11 709.551C1199.11 708.294 1199.41 707.174 1199.99 706.193C1200.59 705.212 1201.38 704.437 1202.38 703.87C1203.38 703.303 1204.5 703.019 1205.74 703.019C1206.96 703.019 1208.08 703.303 1209.07 703.87C1210.07 704.437 1210.86 705.212 1211.44 706.193C1212.04 707.159 1212.34 708.278 1212.34 709.551C1212.34 710.808 1212.04 711.928 1211.44 712.909C1210.84 713.89 1210.05 714.665 1209.05 715.232C1208.05 715.799 1206.95 716.083 1205.74 716.083ZM1205.74 713.323C1206.41 713.323 1207 713.162 1207.51 712.84C1208.03 712.518 1208.44 712.073 1208.73 711.506C1209.03 710.923 1209.19 710.272 1209.19 709.551C1209.19 708.815 1209.03 708.171 1208.73 707.619C1208.44 707.052 1208.03 706.607 1207.51 706.285C1207 705.948 1206.41 705.779 1205.74 705.779C1205.05 705.779 1204.44 705.948 1203.92 706.285C1203.4 706.607 1202.99 707.052 1202.68 707.619C1202.39 708.171 1202.24 708.815 1202.24 709.551C1202.24 710.272 1202.39 710.923 1202.68 711.506C1202.99 712.073 1203.4 712.518 1203.92 712.84C1204.44 713.162 1205.05 713.323 1205.74 713.323ZM1214.62 715.807V703.295H1217.45V706.193L1217.13 705.71C1217.36 704.805 1217.82 704.131 1218.51 703.686C1219.2 703.241 1220.01 703.019 1220.95 703.019C1221.98 703.019 1222.88 703.287 1223.66 703.824C1224.44 704.361 1224.95 705.066 1225.18 705.94L1224.33 706.009C1224.71 705.012 1225.29 704.269 1226.05 703.778C1226.82 703.272 1227.7 703.019 1228.7 703.019C1229.59 703.019 1230.38 703.218 1231.07 703.617C1231.77 704.016 1232.33 704.575 1232.72 705.296C1233.12 706.001 1233.32 706.822 1233.32 707.757V715.807H1230.31V708.47C1230.31 707.918 1230.21 707.443 1230.01 707.044C1229.81 706.645 1229.54 706.339 1229.18 706.124C1228.83 705.894 1228.4 705.779 1227.89 705.779C1227.42 705.779 1227 705.894 1226.63 706.124C1226.26 706.339 1225.98 706.645 1225.78 707.044C1225.58 707.443 1225.48 707.918 1225.48 708.47V715.807H1222.47V708.47C1222.47 707.918 1222.37 707.443 1222.17 707.044C1221.97 706.645 1221.68 706.339 1221.32 706.124C1220.96 705.894 1220.54 705.779 1220.05 705.779C1219.58 705.779 1219.15 705.894 1218.79 706.124C1218.42 706.339 1218.14 706.645 1217.94 707.044C1217.74 707.443 1217.64 707.918 1217.64 708.47V715.807H1214.62Z" fill="#385DA7"/>
<circle cx="117.5" cy="445.5" r="29.5" fill="#F6F6F6"/>
<path d="M102.877 453.219V450.279H105.649V453.219H102.877ZM115.013 453.471C113.879 453.471 112.857 453.212 111.947 452.694C111.051 452.162 110.344 451.448 109.826 450.552C109.308 449.642 109.049 448.62 109.049 447.486C109.049 446.352 109.308 445.337 109.826 444.441C110.344 443.545 111.051 442.838 111.947 442.32C112.857 441.802 113.879 441.543 115.013 441.543C115.825 441.543 116.581 441.69 117.281 441.984C117.981 442.264 118.583 442.656 119.087 443.16C119.605 443.65 119.976 444.238 120.2 444.924L117.785 445.974C117.575 445.4 117.218 444.938 116.714 444.588C116.224 444.238 115.657 444.063 115.013 444.063C114.411 444.063 113.872 444.21 113.396 444.504C112.934 444.798 112.57 445.204 112.304 445.722C112.038 446.24 111.905 446.835 111.905 447.507C111.905 448.179 112.038 448.774 112.304 449.292C112.57 449.81 112.934 450.216 113.396 450.51C113.872 450.804 114.411 450.951 115.013 450.951C115.671 450.951 116.245 450.776 116.735 450.426C117.225 450.076 117.575 449.607 117.785 449.019L120.2 450.111C119.976 450.755 119.612 451.336 119.108 451.854C118.604 452.358 118.002 452.757 117.302 453.051C116.602 453.331 115.839 453.471 115.013 453.471ZM127.874 453.471C126.754 453.471 125.732 453.212 124.808 452.694C123.898 452.176 123.17 451.469 122.624 450.573C122.092 449.677 121.826 448.655 121.826 447.507C121.826 446.359 122.092 445.337 122.624 444.441C123.17 443.545 123.898 442.838 124.808 442.32C125.718 441.802 126.74 441.543 127.874 441.543C128.994 441.543 130.009 441.802 130.919 442.32C131.829 442.838 132.55 443.545 133.082 444.441C133.628 445.323 133.901 446.345 133.901 447.507C133.901 448.655 133.628 449.677 133.082 450.573C132.536 451.469 131.808 452.176 130.898 452.694C129.988 453.212 128.98 453.471 127.874 453.471ZM127.874 450.951C128.49 450.951 129.029 450.804 129.491 450.51C129.967 450.216 130.338 449.81 130.604 449.292C130.884 448.76 131.024 448.165 131.024 447.507C131.024 446.835 130.884 446.247 130.604 445.743C130.338 445.225 129.967 444.819 129.491 444.525C129.029 444.217 128.49 444.063 127.874 444.063C127.244 444.063 126.691 444.217 126.215 444.525C125.739 444.819 125.361 445.225 125.081 445.743C124.815 446.247 124.682 446.835 124.682 447.507C124.682 448.165 124.815 448.76 125.081 449.292C125.361 449.81 125.739 450.216 126.215 450.51C126.691 450.804 127.244 450.951 127.874 450.951Z" fill="#385DA7"/>
<circle cx="311.5" cy="342.5" r="29.5" fill="#F6F6F6"/>
<path d="M301.378 350.219V347.279H304.15V350.219H301.378ZM311.478 350.471C310.68 350.471 309.987 350.338 309.399 350.072C308.811 349.806 308.356 349.428 308.034 348.938C307.712 348.434 307.551 347.853 307.551 347.195C307.551 346.565 307.691 346.005 307.971 345.515C308.251 345.011 308.685 344.591 309.273 344.255C309.861 343.919 310.603 343.681 311.499 343.541L315.237 342.932V345.032L312.024 345.578C311.478 345.676 311.072 345.851 310.806 346.103C310.54 346.355 310.407 346.684 310.407 347.09C310.407 347.482 310.554 347.797 310.848 348.035C311.156 348.259 311.534 348.371 311.982 348.371C312.556 348.371 313.06 348.252 313.494 348.014C313.942 347.762 314.285 347.419 314.523 346.985C314.775 346.551 314.901 346.075 314.901 345.557V342.617C314.901 342.127 314.705 341.721 314.313 341.399C313.935 341.063 313.431 340.895 312.801 340.895C312.213 340.895 311.688 341.056 311.226 341.378C310.778 341.686 310.449 342.099 310.239 342.617L307.992 341.525C308.216 340.923 308.566 340.405 309.042 339.971C309.532 339.523 310.106 339.173 310.764 338.921C311.422 338.669 312.136 338.543 312.906 338.543C313.844 338.543 314.67 338.718 315.384 339.068C316.098 339.404 316.651 339.88 317.043 340.496C317.449 341.098 317.652 341.805 317.652 342.617V350.219H315.048V348.266L315.636 348.224C315.342 348.714 314.992 349.127 314.586 349.463C314.18 349.785 313.718 350.037 313.2 350.219C312.682 350.387 312.108 350.471 311.478 350.471ZM320.195 350.219V338.795H322.946V350.219H320.195ZM320.195 337.514V334.574H322.946V337.514H320.195Z" fill="#385DA7"/>
<circle cx="529.5" cy="936.5" r="38.5" fill="#F6F6F6"/>
<path d="M509.374 944.693V941.473H512.41V944.693H509.374ZM516.64 944.693V932.181H519.469V934.642L519.239 934.205C519.531 933.454 520.006 932.886 520.665 932.503C521.34 932.104 522.122 931.905 523.011 931.905C523.931 931.905 524.744 932.104 525.449 932.503C526.17 932.902 526.73 933.461 527.128 934.182C527.527 934.887 527.726 935.708 527.726 936.643V944.693H524.713V937.356C524.713 936.804 524.606 936.329 524.391 935.93C524.177 935.531 523.878 935.225 523.494 935.01C523.126 934.78 522.689 934.665 522.183 934.665C521.693 934.665 521.256 934.78 520.872 935.01C520.489 935.225 520.19 935.531 519.975 935.93C519.761 936.329 519.653 936.804 519.653 937.356V944.693H516.64ZM536.208 944.969C534.92 944.969 533.793 944.678 532.827 944.095C531.861 943.512 531.11 942.723 530.573 941.726C530.036 940.729 529.768 939.625 529.768 938.414C529.768 937.157 530.036 936.045 530.573 935.079C531.125 934.098 531.869 933.323 532.804 932.756C533.755 932.189 534.813 931.905 535.978 931.905C536.959 931.905 537.818 932.066 538.554 932.388C539.305 932.71 539.942 933.155 540.463 933.722C540.984 934.289 541.383 934.941 541.659 935.677C541.935 936.398 542.073 937.18 542.073 938.023C542.073 938.238 542.058 938.46 542.027 938.69C542.012 938.92 541.973 939.119 541.912 939.288H532.252V936.988H540.21L538.784 938.069C538.922 937.364 538.884 936.735 538.669 936.183C538.47 935.631 538.132 935.194 537.657 934.872C537.197 934.55 536.637 934.389 535.978 934.389C535.349 934.389 534.79 934.55 534.299 934.872C533.808 935.179 533.433 935.639 533.172 936.252C532.927 936.85 532.835 937.578 532.896 938.437C532.835 939.204 532.934 939.886 533.195 940.484C533.471 941.067 533.87 941.519 534.391 941.841C534.928 942.163 535.541 942.324 536.231 942.324C536.921 942.324 537.504 942.178 537.979 941.887C538.47 941.596 538.853 941.205 539.129 940.714L541.567 941.91C541.322 942.508 540.938 943.037 540.417 943.497C539.896 943.957 539.275 944.317 538.554 944.578C537.849 944.839 537.067 944.969 536.208 944.969ZM550.061 944.831C548.65 944.831 547.554 944.448 546.772 943.681C546.005 942.899 545.622 941.803 545.622 940.392V934.872H543.46V932.181H543.69C544.303 932.181 544.779 932.02 545.116 931.698C545.453 931.376 545.622 930.908 545.622 930.295V929.329H548.635V932.181H551.51V934.872H548.635V940.231C548.635 940.645 548.704 940.998 548.842 941.289C548.995 941.58 549.225 941.803 549.532 941.956C549.854 942.109 550.26 942.186 550.751 942.186C550.858 942.186 550.981 942.178 551.119 942.163C551.272 942.148 551.418 942.132 551.556 942.117V944.693C551.341 944.724 551.096 944.754 550.82 944.785C550.544 944.816 550.291 944.831 550.061 944.831Z" fill="#385DA7"/>
<circle cx="1328.5" cy="483.5" r="38.5" fill="#F6F6F6"/>
<path d="M1304.25 489.693V487.173H1306.63V489.693H1304.25ZM1314.65 489.909C1313.68 489.909 1312.8 489.687 1312.02 489.243C1311.26 488.787 1310.65 488.175 1310.21 487.407C1309.76 486.627 1309.54 485.751 1309.54 484.779C1309.54 483.807 1309.76 482.937 1310.21 482.169C1310.65 481.401 1311.26 480.795 1312.02 480.351C1312.8 479.907 1313.68 479.685 1314.65 479.685C1315.35 479.685 1316 479.811 1316.6 480.063C1317.2 480.303 1317.71 480.639 1318.14 481.071C1318.59 481.491 1318.91 481.995 1319.1 482.583L1317.03 483.483C1316.85 482.991 1316.54 482.595 1316.11 482.295C1315.69 481.995 1315.2 481.845 1314.65 481.845C1314.14 481.845 1313.67 481.971 1313.27 482.223C1312.87 482.475 1312.56 482.823 1312.33 483.267C1312.1 483.711 1311.99 484.221 1311.99 484.797C1311.99 485.373 1312.1 485.883 1312.33 486.327C1312.56 486.771 1312.87 487.119 1313.27 487.371C1313.67 487.623 1314.14 487.749 1314.65 487.749C1315.22 487.749 1315.71 487.599 1316.13 487.299C1316.55 486.999 1316.85 486.597 1317.03 486.093L1319.1 487.029C1318.91 487.581 1318.59 488.079 1318.16 488.523C1317.73 488.955 1317.21 489.297 1316.61 489.549C1316.01 489.789 1315.36 489.909 1314.65 489.909ZM1325.68 489.909C1324.72 489.909 1323.84 489.687 1323.05 489.243C1322.27 488.799 1321.64 488.193 1321.18 487.425C1320.72 486.657 1320.49 485.781 1320.49 484.797C1320.49 483.813 1320.72 482.937 1321.18 482.169C1321.64 481.401 1322.27 480.795 1323.05 480.351C1323.83 479.907 1324.7 479.685 1325.68 479.685C1326.64 479.685 1327.51 479.907 1328.29 480.351C1329.07 480.795 1329.68 481.401 1330.14 482.169C1330.61 482.925 1330.84 483.801 1330.84 484.797C1330.84 485.781 1330.61 486.657 1330.14 487.425C1329.67 488.193 1329.05 488.799 1328.27 489.243C1327.49 489.687 1326.62 489.909 1325.68 489.909ZM1325.68 487.749C1326.2 487.749 1326.67 487.623 1327.06 487.371C1327.47 487.119 1327.79 486.771 1328.02 486.327C1328.26 485.871 1328.38 485.361 1328.38 484.797C1328.38 484.221 1328.26 483.717 1328.02 483.285C1327.79 482.841 1327.47 482.493 1327.06 482.241C1326.67 481.977 1326.2 481.845 1325.68 481.845C1325.14 481.845 1324.66 481.977 1324.25 482.241C1323.85 482.493 1323.52 482.841 1323.28 483.285C1323.05 483.717 1322.94 484.221 1322.94 484.797C1322.94 485.361 1323.05 485.871 1323.28 486.327C1323.52 486.771 1323.85 487.119 1324.25 487.371C1324.66 487.623 1325.14 487.749 1325.68 487.749ZM1333.75 489.693V487.173H1336.12V489.693H1333.75ZM1339.43 489.693V479.901H1341.79V489.693H1339.43ZM1339.43 478.803V476.283H1341.79V478.803H1339.43ZM1348.52 489.909C1347.57 489.909 1346.73 489.687 1345.98 489.243C1345.24 488.787 1344.65 488.169 1344.22 487.389C1343.79 486.609 1343.57 485.745 1343.57 484.797C1343.57 483.837 1343.79 482.973 1344.22 482.205C1344.65 481.437 1345.24 480.825 1345.98 480.369C1346.74 479.913 1347.58 479.685 1348.5 479.685C1349.25 479.685 1349.91 479.835 1350.48 480.135C1351.07 480.423 1351.53 480.831 1351.87 481.359L1351.51 481.845V476.067H1353.87V489.693H1351.64V487.803L1351.89 488.271C1351.55 488.799 1351.08 489.207 1350.48 489.495C1349.88 489.771 1349.23 489.909 1348.52 489.909ZM1348.77 487.749C1349.31 487.749 1349.79 487.623 1350.2 487.371C1350.6 487.119 1350.92 486.771 1351.15 486.327C1351.39 485.883 1351.51 485.373 1351.51 484.797C1351.51 484.233 1351.39 483.729 1351.15 483.285C1350.92 482.829 1350.6 482.475 1350.2 482.223C1349.79 481.971 1349.31 481.845 1348.77 481.845C1348.25 481.845 1347.77 481.977 1347.35 482.241C1346.93 482.493 1346.6 482.841 1346.36 483.285C1346.13 483.717 1346.02 484.221 1346.02 484.797C1346.02 485.373 1346.13 485.883 1346.36 486.327C1346.6 486.771 1346.93 487.119 1347.35 487.371C1347.77 487.623 1348.25 487.749 1348.77 487.749Z" fill="#385DA7"/>
<circle cx="221" cy="612" r="31" fill="#F6F6F6"/>
<path d="M208.859 620.298V617.078H211.895V620.298H208.859ZM216.125 620.298V607.786H219.138V620.298H216.125ZM216.125 606.383V603.163H219.138V606.383H216.125ZM227.739 620.574C226.528 620.574 225.447 620.291 224.496 619.723C223.545 619.141 222.794 618.351 222.242 617.354C221.69 616.358 221.414 615.254 221.414 614.042C221.414 612.816 221.69 611.712 222.242 610.73C222.794 609.749 223.545 608.967 224.496 608.384C225.462 607.802 226.535 607.51 227.716 607.51C228.667 607.51 229.51 607.702 230.246 608.085C230.997 608.453 231.588 608.975 232.017 609.649L231.557 610.27V602.887H234.57V620.298H231.718V617.883L232.04 618.481C231.611 619.156 231.013 619.677 230.246 620.045C229.479 620.398 228.644 620.574 227.739 620.574ZM228.061 617.814C228.751 617.814 229.357 617.653 229.878 617.331C230.399 617.009 230.806 616.565 231.097 615.997C231.404 615.43 231.557 614.778 231.557 614.042C231.557 613.322 231.404 612.678 231.097 612.11C230.806 611.528 230.399 611.075 229.878 610.753C229.357 610.431 228.751 610.27 228.061 610.27C227.386 610.27 226.781 610.439 226.244 610.776C225.707 611.098 225.286 611.543 224.979 612.11C224.688 612.662 224.542 613.306 224.542 614.042C224.542 614.778 224.688 615.43 224.979 615.997C225.286 616.565 225.707 617.009 226.244 617.331C226.781 617.653 227.386 617.814 228.061 617.814Z" fill="#385DA7"/>
<circle cx="121" cy="842" r="31" fill="#F6F6F6"/>
<path d="M108.219 850.298V847.078H111.255V850.298H108.219ZM121.189 850.436C119.778 850.436 118.682 850.053 117.9 849.286C117.133 848.504 116.75 847.408 116.75 845.997V840.477H114.588V837.786H114.818C115.431 837.786 115.907 837.625 116.244 837.303C116.581 836.981 116.75 836.514 116.75 835.9V834.934H119.763V837.786H122.638V840.477H119.763V845.836C119.763 846.25 119.832 846.603 119.97 846.894C120.123 847.186 120.353 847.408 120.66 847.561C120.982 847.715 121.388 847.791 121.879 847.791C121.986 847.791 122.109 847.784 122.247 847.768C122.4 847.753 122.546 847.738 122.684 847.722V850.298C122.469 850.329 122.224 850.36 121.948 850.39C121.672 850.421 121.419 850.436 121.189 850.436ZM128.758 850.298L123.836 837.786H127.125L130.69 847.63H129.471L133.059 837.786H136.348L131.426 850.298H128.758Z" fill="#385DA7"/>
<circle cx="1045.5" cy="1004.5" r="48.5" fill="#F6F6F6"/>
<path d="M1014.54 1012.89V1009.67H1017.57V1012.89H1014.54ZM1026.56 1013.16C1025.23 1013.16 1024.06 1012.85 1023.07 1012.22C1022.09 1011.57 1021.41 1010.71 1021.04 1009.62L1023.3 1008.54C1023.62 1009.24 1024.06 1009.8 1024.63 1010.19C1025.21 1010.59 1025.86 1010.79 1026.56 1010.79C1027.12 1010.79 1027.55 1010.67 1027.87 1010.42C1028.2 1010.18 1028.36 1009.86 1028.36 1009.46C1028.36 1009.21 1028.29 1009.01 1028.15 1008.86C1028.03 1008.69 1027.85 1008.55 1027.62 1008.45C1027.41 1008.32 1027.17 1008.22 1026.91 1008.15L1024.86 1007.57C1023.8 1007.27 1023 1006.8 1022.45 1006.17C1021.91 1005.54 1021.64 1004.8 1021.64 1003.94C1021.64 1003.17 1021.83 1002.51 1022.22 1001.94C1022.62 1001.36 1023.16 1000.9 1023.85 1000.58C1024.56 1000.26 1025.36 1000.1 1026.26 1000.1C1027.45 1000.1 1028.49 1000.38 1029.39 1000.95C1030.3 1001.52 1030.94 1002.31 1031.32 1003.34L1029.02 1004.42C1028.81 1003.85 1028.45 1003.4 1027.94 1003.06C1027.44 1002.73 1026.87 1002.56 1026.24 1002.56C1025.74 1002.56 1025.34 1002.67 1025.05 1002.9C1024.75 1003.13 1024.61 1003.43 1024.61 1003.8C1024.61 1004.03 1024.67 1004.23 1024.79 1004.4C1024.92 1004.57 1025.08 1004.71 1025.3 1004.81C1025.53 1004.92 1025.79 1005.02 1026.08 1005.11L1028.08 1005.71C1029.11 1006.02 1029.9 1006.48 1030.45 1007.09C1031.02 1007.7 1031.3 1008.45 1031.3 1009.34C1031.3 1010.1 1031.1 1010.76 1030.7 1011.34C1030.31 1011.91 1029.75 1012.36 1029.05 1012.68C1028.34 1013 1027.51 1013.16 1026.56 1013.16ZM1039.32 1013.02C1037.91 1013.02 1036.81 1012.64 1036.03 1011.87C1035.27 1011.09 1034.88 1010 1034.88 1008.58V1003.06H1032.72V1000.37H1032.95C1033.56 1000.37 1034.04 1000.21 1034.38 999.891C1034.71 999.569 1034.88 999.101 1034.88 998.488V997.522H1037.9V1000.37H1040.77V1003.06H1037.9V1008.42C1037.9 1008.84 1037.96 1009.19 1038.1 1009.48C1038.26 1009.77 1038.49 1010 1038.79 1010.15C1039.11 1010.3 1039.52 1010.38 1040.01 1010.38C1040.12 1010.38 1040.24 1010.37 1040.38 1010.36C1040.53 1010.34 1040.68 1010.33 1040.82 1010.31V1012.89C1040.6 1012.92 1040.36 1012.95 1040.08 1012.98C1039.8 1013.01 1039.55 1013.02 1039.32 1013.02ZM1049.12 1013.16C1047.9 1013.16 1046.78 1012.88 1045.77 1012.31C1044.77 1011.74 1043.97 1010.97 1043.37 1009.99C1042.79 1009.01 1042.5 1007.89 1042.5 1006.63C1042.5 1005.37 1042.79 1004.25 1043.37 1003.27C1043.97 1002.29 1044.77 1001.52 1045.77 1000.95C1046.76 1000.38 1047.88 1000.1 1049.12 1000.1C1050.35 1000.1 1051.46 1000.38 1052.46 1000.95C1053.46 1001.52 1054.25 1002.29 1054.83 1003.27C1055.43 1004.24 1055.73 1005.36 1055.73 1006.63C1055.73 1007.89 1055.43 1009.01 1054.83 1009.99C1054.23 1010.97 1053.43 1011.74 1052.44 1012.31C1051.44 1012.88 1050.34 1013.16 1049.12 1013.16ZM1049.12 1010.4C1049.8 1010.4 1050.39 1010.24 1050.9 1009.92C1051.42 1009.6 1051.82 1009.15 1052.11 1008.58C1052.42 1008 1052.57 1007.35 1052.57 1006.63C1052.57 1005.89 1052.42 1005.25 1052.11 1004.7C1051.82 1004.13 1051.42 1003.69 1050.9 1003.36C1050.39 1003.03 1049.8 1002.86 1049.12 1002.86C1048.43 1002.86 1047.83 1003.03 1047.31 1003.36C1046.79 1003.69 1046.37 1004.13 1046.07 1004.7C1045.77 1005.25 1045.63 1005.89 1045.63 1006.63C1045.63 1007.35 1045.77 1008 1046.07 1008.58C1046.37 1009.15 1046.79 1009.6 1047.31 1009.92C1047.83 1010.24 1048.43 1010.4 1049.12 1010.4ZM1058.01 1012.89V1000.37H1060.84V1003.16L1060.61 1002.74C1060.9 1001.81 1061.35 1001.16 1061.97 1000.79C1062.59 1000.42 1063.35 1000.24 1064.22 1000.24H1064.96V1002.9H1063.87C1063.02 1002.9 1062.33 1003.17 1061.8 1003.71C1061.28 1004.23 1061.02 1004.97 1061.02 1005.92V1012.89H1058.01ZM1072.55 1013.16C1071.26 1013.16 1070.13 1012.87 1069.17 1012.29C1068.2 1011.71 1067.45 1010.92 1066.91 1009.92C1066.37 1008.92 1066.11 1007.82 1066.11 1006.61C1066.11 1005.35 1066.37 1004.24 1066.91 1003.27C1067.46 1002.29 1068.21 1001.52 1069.14 1000.95C1070.09 1000.38 1071.15 1000.1 1072.32 1000.1C1073.3 1000.1 1074.16 1000.26 1074.89 1000.58C1075.64 1000.9 1076.28 1001.35 1076.8 1001.91C1077.32 1002.48 1077.72 1003.13 1078 1003.87C1078.27 1004.59 1078.41 1005.37 1078.41 1006.22C1078.41 1006.43 1078.4 1006.65 1078.37 1006.88C1078.35 1007.11 1078.31 1007.31 1078.25 1007.48H1068.59V1005.18H1076.55L1075.12 1006.26C1075.26 1005.56 1075.22 1004.93 1075.01 1004.38C1074.81 1003.82 1074.47 1003.39 1074 1003.06C1073.54 1002.74 1072.98 1002.58 1072.32 1002.58C1071.69 1002.58 1071.13 1002.74 1070.64 1003.06C1070.15 1003.37 1069.77 1003.83 1069.51 1004.44C1069.27 1005.04 1069.17 1005.77 1069.23 1006.63C1069.17 1007.4 1069.27 1008.08 1069.53 1008.68C1069.81 1009.26 1070.21 1009.71 1070.73 1010.03C1071.27 1010.36 1071.88 1010.52 1072.57 1010.52C1073.26 1010.52 1073.84 1010.37 1074.32 1010.08C1074.81 1009.79 1075.19 1009.4 1075.47 1008.91L1077.91 1010.1C1077.66 1010.7 1077.28 1011.23 1076.76 1011.69C1076.23 1012.15 1075.61 1012.51 1074.89 1012.77C1074.19 1013.03 1073.41 1013.16 1072.55 1013.16Z" fill="#385DA7"/>
</g>
<defs>
<radialGradient id="paint0_radial_1469_440" cx="0" cy="0" r="1" gradientUnits="userSpaceOnUse" gradientTransform="translate(388.991 460.669) scale(30.5496)">
<stop offset="0.4707" stop-color="#EF5451"/>
<stop offset="0.8338" stop-color="#E53A35"/>
</radialGradient>
<radialGradient id="paint1_radial_1469_440" cx="0" cy="0" r="1" gradientUnits="userSpaceOnUse" gradientTransform="translate(394.853 469.376) scale(15.0591)">
<stop offset="0.4707" stop-color="#EF5451"/>
<stop offset="0.8338" stop-color="#E53A35"/>
</radialGradient>
<linearGradient id="paint2_linear_1469_440" x1="302.73" y1="935.13" x2="286.574" y2="935.13" gradientUnits="userSpaceOnUse">
<stop stop-color="#FF6D00"/>
<stop offset="0.2487" stop-color="#FF9B00"/>
<stop offset="0.5135" stop-color="#FFC600"/>
<stop offset="0.721" stop-color="#FFE000"/>
<stop offset="0.8439" stop-color="#FFEA00"/>
</linearGradient>
<linearGradient id="paint3_linear_1469_440" x1="297.251" y1="932.446" x2="288.887" y2="941.064" gradientUnits="userSpaceOnUse">
<stop offset="0.0044475" stop-color="#C62828"/>
<stop offset="0.2711" stop-color="#D75327"/>
<stop offset="0.5983" stop-color="#E98126"/>
<stop offset="0.8504" stop-color="#F59D25"/>
<stop offset="0.9953" stop-color="#F9A825"/>
</linearGradient>
<radialGradient id="paint4_radial_1469_440" cx="0" cy="0" r="1" gradientUnits="userSpaceOnUse" gradientTransform="translate(320.749 902.748) rotate(180) scale(18.218)">
<stop offset="0.0112" stop-color="#F5F5F5"/>
<stop offset="0.9995" stop-color="#BDBDBD"/>
</radialGradient>
<linearGradient id="paint5_linear_1469_440" x1="1155.93" y1="410.706" x2="1155.93" y2="403.445" gradientUnits="userSpaceOnUse">
<stop stop-color="#E0E0E0"/>
<stop offset="1" stop-color="#9E9E9E"/>
</linearGradient>
<linearGradient id="paint6_linear_1469_440" x1="1155.92" y1="378.403" x2="1155.92" y2="403.24" gradientUnits="userSpaceOnUse">
<stop offset="0.0056401" stop-color="#E0E0E0"/>
<stop offset="0.9988" stop-color="#9E9E9E"/>
</linearGradient>
</defs>
</svg>
