<svg width="903" height="635" viewBox="0 0 903 635" fill="none" xmlns="http://www.w3.org/2000/svg">
<path d="M543.94 131.24C548.734 131.24 552.62 127.448 552.62 122.77C552.62 118.092 548.734 114.3 543.94 114.3C539.146 114.3 535.26 118.092 535.26 122.77C535.26 127.448 539.146 131.24 543.94 131.24Z" fill="#CCDDE2"/>
<path d="M568.3 152.071C574.071 152.071 578.75 147.505 578.75 141.871C578.75 136.238 574.071 131.671 568.3 131.671C562.529 131.671 557.85 136.238 557.85 141.871C557.85 147.505 562.529 152.071 568.3 152.071Z" fill="#CCDDE2"/>
<path d="M754.18 482.15L800.48 532.7V306.82" stroke="#CCDDE2" stroke-width="4.03" stroke-miterlimit="10"/>
<path d="M800.48 500.668L842.34 463.878" stroke="#CCDDE2" stroke-width="4.03" stroke-miterlimit="10"/>
<path d="M800.48 409.039L771.94 377.089" stroke="#CCDDE2" stroke-width="4.03" stroke-miterlimit="10"/>
<path d="M800.48 380.289L821.41 367.679" stroke="#CCDDE2" stroke-width="4.03" stroke-miterlimit="10"/>
<path d="M800.48 319.931C800.48 316.101 786.21 289.031 786.21 289.031" stroke="#CCDDE2" stroke-width="4.03" stroke-miterlimit="10"/>
<path d="M755.18 549.171C756.56 549.241 757.35 549.261 757.35 549.261L769.47 549.481C773.933 549.55 778.191 551.371 781.323 554.552C784.455 557.732 786.21 562.017 786.21 566.481V630.861" stroke="#CCDDE2" stroke-width="4.03" stroke-miterlimit="10"/>
<path d="M650.05 517.601L685.46 556.261V383.511" stroke="#CCDDE2" stroke-width="4.03" stroke-miterlimit="10"/>
<path d="M695.43 523L685.46 531.76" stroke="#CCDDE2" stroke-width="4.03" stroke-miterlimit="10"/>
<path d="M685.46 461.69L663.63 437.25" stroke="#CCDDE2" stroke-width="4.03" stroke-miterlimit="10"/>
<path d="M685.46 439.698L701.47 430.058" stroke="#CCDDE2" stroke-width="4.03" stroke-miterlimit="10"/>
<path d="M685.46 393.53C685.46 390.6 674.54 369.91 674.54 369.91" stroke="#CCDDE2" stroke-width="4.03" stroke-miterlimit="10"/>
<path d="M717.73 474.831C713.56 468.271 711.41 461.551 716.18 457.371C719.11 454.801 726.01 454.491 731.23 452.941" stroke="#CCDDE2" stroke-width="4.03" stroke-miterlimit="10"/>
<path d="M691.28 336.621C693.534 338.551 695.445 340.851 696.93 343.421C705.23 357.581 701.48 374.921 701.44 390.421C701.39 402.421 705.06 412.791 714.79 420.131C723.52 426.721 733.68 432.661 737.31 443.671C737.515 444.286 737.665 444.919 737.76 445.561" stroke="#CCDDE2" stroke-width="4.03" stroke-miterlimit="10"/>
<path d="M632 566.492C638.703 568.096 645.568 568.921 652.46 568.952L661.74 569.092C665.15 569.149 668.4 570.544 670.79 572.976C673.181 575.408 674.521 578.682 674.52 582.092V631.322" stroke="#CCDDE2" stroke-width="4.03" stroke-miterlimit="10"/>
<path d="M631.6 434.879C642.74 414.539 660.22 424.579 665.09 404.689C668.24 391.689 664.28 377.689 665.23 364.519C665.401 362.248 665.735 359.992 666.23 357.769" stroke="#CCDDE2" stroke-width="4.03" stroke-miterlimit="10"/>
<path d="M695.65 583.348C695.649 581.425 696.029 579.52 696.77 577.744C697.511 575.969 698.598 574.359 699.966 573.007C701.335 571.655 702.959 570.589 704.743 569.869C706.527 569.15 708.437 568.793 710.36 568.818L717.47 568.938C730.73 568.388 742.71 571.658 754.87 556.708L755.18 556.318C744.66 555.658 699.01 551.198 695.43 522.998C694.43 515.338 696.78 507.618 700.01 500.748C709.31 480.958 723.86 463.488 737.14 446.258C743.01 438.638 749.63 431.638 754.54 423.258C757.69 417.928 762.64 408.898 756.93 403.538C750.2 397.228 730.67 401.608 728.28 391.008C727.984 389.132 728.188 387.211 728.87 385.438C738.32 356.648 767.51 360.438 773.87 334.438C778 317.438 772.82 299.188 774.04 281.918C774.88 270.278 779.67 255.608 787.21 246.618C796.84 235.078 809.12 243.468 815.49 254.348C826.35 272.858 821.49 295.518 821.38 315.808C821.38 331.508 826.15 345.048 838.87 354.638C850.27 363.248 863.58 371.028 868.3 385.428C873.45 401.128 847.93 397.018 840.68 403.338C827.59 414.788 854.39 441.168 861.86 448.728C880.56 467.728 916.67 502.008 891.27 533.228C875.36 552.788 859.69 548.518 842.37 549.228L833.05 549.108C830.536 549.078 828.04 549.547 825.708 550.488C823.377 551.429 821.255 552.824 819.466 554.591C817.677 556.359 816.257 558.463 815.288 560.784C814.319 563.104 813.82 565.594 813.82 568.108" stroke="#CCDDE2" stroke-width="4.03" stroke-miterlimit="10"/>
<path d="M24.8199 632.732C24.8199 632.732 13.8899 615.992 13.8899 578.312C13.8899 540.632 30.8899 523.902 30.8899 523.902C12.4499 577.622 50.42 632.732 50.42 632.732C51.57 630.662 62.5 615.132 63.65 587.512C63.65 587.512 74 611.212 65.37 632.732" stroke="#CCDDE2" stroke-width="4.03" stroke-linejoin="round"/>
<path d="M321.87 632.728C321.87 632.728 329.13 624.358 329.13 605.518C329.13 586.678 317.86 578.308 317.86 578.308C330.08 605.188 304.86 632.728 304.86 632.728C299.534 626.358 296.449 618.414 296.08 610.118C296.08 610.118 289.23 621.948 295 632.728" stroke="#CCDDE2" stroke-width="4.03" stroke-linejoin="round"/>
<path d="M226.56 513.73C227.364 520.205 226.819 526.776 224.96 533.03C218.32 555.58 196.84 569.11 176.96 563.27C157.08 557.43 146.42 534.4 153.07 511.85C159.72 489.3 181.18 475.77 201.07 481.62C202.806 482.135 204.498 482.787 206.13 483.57L185.42 519.44C184.861 520.513 184.738 521.761 185.076 522.924C185.415 524.086 186.189 525.073 187.237 525.679C188.285 526.284 189.526 526.463 190.702 526.176C191.878 525.889 192.898 525.16 193.55 524.14L213.94 488.73C219.685 493.971 223.731 500.811 225.56 508.37L226.56 513.73Z" fill="#D7E8F0"/>
<path d="M581.67 513.73C582.474 520.205 581.93 526.776 580.07 533.03C573.43 555.58 551.95 569.11 532.07 563.27C512.19 557.43 501.53 534.4 508.18 511.85C514.83 489.3 536.29 475.77 556.18 481.62C557.916 482.135 559.608 482.787 561.24 483.57L540.53 519.44C539.971 520.513 539.848 521.761 540.187 522.924C540.525 524.086 541.299 525.073 542.347 525.679C543.395 526.284 544.636 526.463 545.812 526.176C546.988 525.889 548.008 525.16 548.66 524.14L569.05 488.73C574.795 493.971 578.841 500.811 580.67 508.37L581.67 513.73Z" fill="#D7E8F0"/>
<path d="M164.48 463.508C177.74 455.878 193.19 453.398 208.08 457.788C210.824 458.596 213.5 459.623 216.08 460.858L183.3 517.648C182.652 518.774 182.307 520.049 182.3 521.348C182.306 522.984 182.849 524.572 183.847 525.868C184.846 527.164 186.243 528.096 187.823 528.519C189.403 528.942 191.078 528.834 192.59 528.21C194.103 527.586 195.368 526.482 196.19 525.068L228.48 469.138C237.572 477.441 243.975 488.271 246.87 500.238" stroke="#CCDDE2" stroke-width="4.03" stroke-miterlimit="10"/>
<path d="M170 587.012C138.59 577.752 121.66 541.312 132.2 505.632C132.334 505.131 132.495 504.637 132.68 504.152" stroke="#CCDDE2" stroke-width="4.03" stroke-miterlimit="10"/>
<path d="M248.44 508.609C249.72 518.858 248.855 529.262 245.9 539.159" stroke="#CCDDE2" stroke-width="4.03" stroke-miterlimit="10"/>
<path d="M519.59 463.508C532.85 455.878 548.3 453.398 563.19 457.788C565.935 458.596 568.61 459.623 571.19 460.858L538.4 517.648C537.752 518.774 537.407 520.049 537.4 521.348C537.397 522.988 537.937 524.583 538.934 525.885C539.932 527.187 541.331 528.122 542.915 528.547C544.499 528.971 546.179 528.86 547.694 528.231C549.208 527.602 550.473 526.49 551.29 525.068L583.58 469.138" stroke="#CCDDE2" stroke-width="4.03" stroke-miterlimit="10"/>
<path d="M525.07 587.012C493.66 577.752 476.73 541.312 487.27 505.632C487.404 505.131 487.565 504.637 487.75 504.152" stroke="#CCDDE2" stroke-width="4.03" stroke-miterlimit="10"/>
<path d="M603.55 508.609C604.827 518.859 603.958 529.262 601 539.159" stroke="#CCDDE2" stroke-width="4.03" stroke-miterlimit="10"/>
<path d="M581.67 513.73C582.474 520.205 581.93 526.776 580.07 533.03C573.43 555.58 551.95 569.11 532.07 563.27C512.19 557.43 501.53 534.4 508.18 511.85C514.83 489.3 536.29 475.77 556.18 481.62C557.916 482.135 559.608 482.787 561.24 483.57L540.53 519.44C539.971 520.513 539.848 521.761 540.187 522.924C540.525 524.086 541.299 525.073 542.347 525.679C543.395 526.284 544.636 526.463 545.812 526.176C546.988 525.889 548.008 525.16 548.66 524.14L569.05 488.73C574.795 493.971 578.841 500.811 580.67 508.37L581.67 513.73Z" fill="#D7E8F0"/>
<path d="M260.38 373.161L248.19 394.271L216.3 334.171C226.51 353.371 241.46 365.531 260.38 373.161Z" fill="black"/>
<path d="M425.3 230.058C424.97 230.268 424.64 230.508 424.3 230.748C424.237 230.683 424.18 230.613 424.13 230.538L425.3 230.058Z" fill="#2E2E2E"/>
<path d="M284.59 380.29C276.317 378.665 268.212 376.279 260.38 373.16L284.59 380.29Z" fill="#2E2E2E"/>
<path d="M391.65 473.378L377.34 499.618H275.57L283.73 485.808L290.6 474.218L291.07 473.408L391.65 473.378Z" fill="#2E2E2E"/>
<path d="M355.28 520.96V521.08H315.04L314.97 520.96H355.28Z" fill="#2E2E2E"/>
<path d="M355.28 520.96V521.08H344.52V547.2H329.28L315.04 521.08L314.97 520.96H355.28Z" fill="#2E2E2E"/>
<path d="M431.05 547.2H366.01V520.96H415.55L431.05 547.2Z" fill="#2E2E2E"/>
<path d="M409.54 547.199V554.669C409.54 558.382 408.065 561.943 405.439 564.568C402.814 567.194 399.253 568.669 395.54 568.669H366V547.199H409.54Z" fill="#3FBDF1"/>
<path d="M366 510.348V521.038H355.29H315L315.07 521.158C311.357 521.158 307.796 519.683 305.171 517.058C302.545 514.432 301.07 510.871 301.07 507.158V499.718H355.33C358.148 499.734 360.847 500.858 362.844 502.847C364.84 504.836 365.974 507.53 366 510.348Z" fill="#3FBDF1"/>
<path d="M366.01 521.04V521.061L355.28 521.04L344.52 521.011L314.97 520.96H355.28V520.99L365.99 521.04H366.01Z" fill="#2E2E2E"/>
<path d="M380.51 521.08H344.52V520.96L355.28 520.99L365.99 521.04H366.01L380.51 521.08Z" fill="#2E2E2E"/>
<path d="M636.88 383.539V385.919H635.5L636.88 383.539Z" fill="#2E2E2E"/>
<path d="M284.59 380.292L261.76 419.842L253.34 434.432L200 526.832C199.194 528.227 198.12 529.45 196.842 530.431C195.563 531.411 194.103 532.13 192.546 532.547C190.99 532.963 189.366 533.069 187.768 532.858C186.171 532.647 184.63 532.123 183.235 531.317C181.84 530.511 180.617 529.437 179.636 528.158C178.656 526.88 177.937 525.42 177.52 523.863C177.104 522.306 176.998 520.683 177.209 519.085C177.42 517.488 177.944 515.947 178.75 514.552L232.9 420.732L248.19 394.262L260.38 373.152L284.59 380.292Z" fill="#2E2E2E"/>
<path d="M666.51 328.94C666.51 331.093 665.941 333.208 664.86 335.07L661.19 341.47C651.95 342.93 642.34 345.6 653.74 354.38L636.91 383.54L635.53 385.92L607.84 433.92L554.15 526.83C552.477 529.559 549.804 531.528 546.701 532.316C543.598 533.104 540.31 532.648 537.537 531.047C534.765 529.446 532.728 526.825 531.86 523.743C530.991 520.662 531.361 517.363 532.89 514.55L587.25 420.39L607.17 385.92H456.88L475.08 351.58H627L643.63 322.79C644.98 320.448 647.066 318.617 649.564 317.582C652.062 316.547 654.831 316.367 657.442 317.068C660.053 317.769 662.36 319.313 664.003 321.46C665.646 323.607 666.535 326.236 666.53 328.94H666.51Z" fill="#2E2E2E"/>
<path d="M425.3 230.058C424.97 230.268 424.64 230.508 424.3 230.748C424.237 230.683 424.18 230.613 424.13 230.538L425.3 230.058Z" fill="#2E2E2E"/>
<path d="M209.58 318.35C195.39 315.49 177.16 312.84 168.58 299.66C167.36 297.82 165.83 295.66 165.5 293.41C165.453 293.149 165.43 292.885 165.43 292.62C165.29 288.21 170.56 288.49 173.94 289.02C182.01 290.26 189.94 292.02 197.89 293.91C200.25 294.46 202.59 295.03 204.89 295.6C205.545 303.342 207.119 310.979 209.58 318.35Z" fill="black"/>
<path d="M634.1 312.271C627.75 329.401 614.87 329.471 614.66 329.471C590.121 323.668 565.967 316.341 542.34 307.531C478.26 283.251 443.34 254.531 424.34 230.751C424.661 230.504 424.995 230.273 425.34 230.061L424.19 230.541C424.241 230.616 424.297 230.686 424.36 230.751C406 243.391 396 262.471 390.58 280.071C390.261 281.162 389.87 282.231 389.41 283.271C389.391 283.33 389.368 283.386 389.34 283.441L388.22 285.801C388.215 285.836 388.198 285.869 388.17 285.891C384.74 292.481 374.41 301.301 367.83 304.431L247.6 303.541L197.89 293.911C190 292.021 182 290.261 174 289.021C170.61 288.491 165.34 288.211 165.48 292.621C165.48 286.871 168.48 282.941 171.94 278.761C175.64 274.281 179.347 269.808 183.06 265.341C203.83 240.551 224.06 215.341 244.92 190.641C250.05 184.551 255.28 178.591 260.86 172.941C280.39 153.091 302.98 135.661 327.73 122.781C371.38 100.121 404.34 93.1614 430.73 96.7114L431.59 96.8314C491.59 105.391 517.48 168.381 558.26 222.951C568.04 236.021 584.98 248.071 601.55 257.731L636.55 275.341C636.54 275.411 636.54 275.482 636.55 275.551C637.65 291.381 637 304.381 634.1 312.271Z" fill="#2E2E2E"/>
<path d="M425.3 230.058C424.97 230.268 424.64 230.508 424.3 230.748C424.237 230.683 424.18 230.613 424.13 230.538L425.3 230.058Z" fill="#2E2E2E"/>
<path d="M0 632.71H886.88" stroke="black" stroke-width="4.03" stroke-miterlimit="10"/>
<path d="M390.93 281.781H444.12C475.33 281.781 495.32 315.001 480.7 342.571L411.36 473.371H291.91L342.48 385.731" stroke="black" stroke-width="4.03" stroke-miterlimit="10"/>
<path d="M408.89 473.378L435.75 520.958H416.38H366.84" stroke="black" stroke-width="4.03" stroke-miterlimit="10"/>
<path d="M249.02 394.269L216.51 333" stroke="black" stroke-width="4.03" stroke-miterlimit="10"/>
<path d="M291.43 474.189L262.59 419.839" stroke="black" stroke-width="4.03" stroke-miterlimit="10"/>
<path d="M402.42 183.191C402.42 183.191 407.42 279.381 615.49 329.481C615.49 329.481 642.09 330.231 636.49 275.381" stroke="black" stroke-width="4.03" stroke-miterlimit="10"/>
<path d="M398.45 385.921H365.84C293.5 385.921 238.7 380.921 214.84 329.471C213.154 325.856 211.688 322.143 210.45 318.351C208.003 310.979 206.442 303.342 205.8 295.601" stroke="black" stroke-width="4.03" stroke-miterlimit="10"/>
<path d="M392.48 473.378L378.17 499.618H276.4L284.56 485.808L291.43 474.188L291.91 473.378H392.48Z" stroke="black" stroke-width="4.03" stroke-miterlimit="10"/>
<path d="M356.11 520.96V521.08H315.88L315.8 520.96H356.11Z" stroke="black" stroke-width="4.03" stroke-miterlimit="10"/>
<path d="M356.11 520.96V521.08H345.36V547.2H330.11L315.88 521.08L315.8 520.96H356.11Z" stroke="black" stroke-width="4.03" stroke-miterlimit="10"/>
<path d="M431.88 547.2H366.84V520.96H416.38L431.88 547.2Z" stroke="black" stroke-width="4.03" stroke-miterlimit="10"/>
<path d="M410.37 547.199V554.669C410.37 558.382 408.895 561.943 406.27 564.568C403.644 567.194 400.083 568.669 396.37 568.669H366.84V547.199H410.37Z" stroke="black" stroke-width="4.03" stroke-miterlimit="10"/>
<path d="M356.11 499.621C357.52 499.619 358.915 499.896 360.218 500.435C361.52 500.973 362.704 501.764 363.7 502.76C364.697 503.757 365.487 504.94 366.026 506.243C366.565 507.545 366.841 508.941 366.84 510.351V568.731H356.09C353.243 568.731 350.513 567.6 348.499 565.588C346.485 563.576 345.353 560.847 345.35 558.001V521.081H356.11" stroke="black" stroke-width="4.03" stroke-miterlimit="10"/>
<path d="M356.11 499.621H301.85V507.061C301.85 510.774 303.325 514.335 305.951 516.96C308.576 519.586 312.137 521.061 315.85 521.061L315.77 520.941L366.77 521.041" stroke="black" stroke-width="4.03" stroke-miterlimit="10"/>
<path d="M381.36 521.071L383.74 521.08H345.36V520.96L381.36 521.071Z" stroke="black" stroke-width="4.03" stroke-miterlimit="10"/>
<path d="M667.22 327.25C666.973 325.402 666.303 323.636 665.262 322.089C664.222 320.542 662.838 319.255 661.22 318.33C659.825 317.522 658.284 316.998 656.686 316.786C655.088 316.574 653.464 316.679 651.907 317.095C650.349 317.511 648.889 318.23 647.61 319.21C646.33 320.191 645.257 321.414 644.45 322.81L627.83 351.6H475.94L457.71 385.94H608L533.73 514.55C532.102 517.37 531.66 520.722 532.503 523.868C533.346 527.014 535.404 529.696 538.225 531.325C541.046 532.953 544.398 533.394 547.543 532.551C550.689 531.708 553.372 529.65 555 526.83L636.35 385.92L637.73 383.54L653.62 356.04" stroke="black" stroke-width="4.03" stroke-miterlimit="10"/>
<path d="M637.72 385.919H636.33L637.72 383.539V385.919Z" fill="#3FBDF1"/>
<path d="M285.42 380.292L254.17 434.432L200.82 526.832C200.014 528.227 198.941 529.45 197.662 530.431C196.383 531.411 194.923 532.13 193.366 532.547C191.81 532.963 190.186 533.069 188.589 532.858C186.991 532.647 185.45 532.123 184.055 531.317C182.66 530.511 181.437 529.437 180.456 528.158C179.476 526.88 178.757 525.42 178.34 523.863C177.924 522.306 177.818 520.683 178.029 519.085C178.24 517.488 178.764 515.947 179.57 514.552L233.73 420.732L261.21 373.152" stroke="black" stroke-width="4.03" stroke-miterlimit="10"/>
<path d="M283 550.089C265.63 609.039 209.46 644.439 157.57 629.149C105.68 613.859 77.68 553.659 95.07 494.729C112.46 435.799 168.6 400.329 220.5 415.639C225.038 416.986 229.462 418.691 233.73 420.739L179.57 514.549C178.764 515.945 178.24 517.485 178.029 519.083C177.818 520.68 177.924 522.304 178.34 523.861C179.181 527.005 181.237 529.686 184.055 531.314C186.873 532.943 190.222 533.385 193.366 532.544C194.923 532.128 196.383 531.409 197.662 530.428C198.94 529.448 200.014 528.225 200.82 526.829L254.17 434.429C268.91 447.579 279.43 465.539 284.56 485.809L276.4 499.619H287.18C289.296 516.551 287.872 533.737 283 550.089Z" stroke="black" stroke-width="4.03" stroke-miterlimit="10"/>
<path d="M638.079 550.054C655.455 491.092 627.471 430.896 575.576 415.603C523.681 400.309 467.526 435.71 450.15 494.672C432.774 553.635 460.757 613.831 512.652 629.124C564.548 644.417 620.703 609.017 638.079 550.054Z" stroke="black" stroke-width="4.03" stroke-miterlimit="10"/>
<path d="M166.25 292.609C166.2 286.869 169.25 282.939 172.69 278.749L183.82 265.329C204.58 240.549 224.87 215.329 245.69 190.619C250.8 184.559 256.04 178.619 261.61 172.939C281.16 153.089 303.73 135.649 328.49 122.779C472.38 48.0294 500.22 144.239 559 222.949C573.17 241.889 602.36 258.679 623.71 269.199C650.85 282.579 711.71 301.039 687.8 344.199C682.89 353.029 658.09 365.999 650.24 352.349C642.89 339.589 667.24 338.569 667.24 327.269C667.24 318.589 661.24 315.059 654.24 313.149C641.7 309.719 647.79 310.579 634.94 310.489" stroke="black" stroke-width="4.03" stroke-miterlimit="10"/>
<path d="M210.41 318.349C196.22 315.489 178 312.839 169.41 299.659C168.19 297.819 166.67 295.659 166.33 293.409C165.52 288.179 171.2 288.469 174.78 289.019C198.55 292.639 221.38 301.019 245.33 303.159C252 303.759 258.73 304.039 265.43 304.039H359.21C366.439 304.01 373.468 301.663 379.264 297.343C385.06 293.023 389.317 286.958 391.41 280.039C396.97 262.129 407.22 242.669 426.14 230.039" stroke="black" stroke-width="4.03" stroke-miterlimit="10"/>
<path d="M516.79 143.699L506.06 146.619" stroke="black" stroke-width="4.03" stroke-miterlimit="10"/>
<path d="M510.76 107.51C509.82 107.51 456.48 94.3604 431.49 96.7004" stroke="black" stroke-width="4.03" stroke-miterlimit="10"/>
<path d="M578.18 147.89C577.286 149.002 576.332 150.063 575.32 151.07C575.279 151.137 575.22 151.193 575.15 151.23C573.41 153 573.87 152.28 571.77 153.81C571.75 153.851 571.714 153.884 571.67 153.9C571.559 154.021 571.431 154.126 571.29 154.21C573.955 150.001 576.295 145.595 578.29 141.03C581.77 134.78 584.52 127.74 580.68 125.69C574.17 122.23 573.95 109.33 576.03 102.22C576.03 102.22 576.03 102.22 576.03 102.17C576.258 101.36 576.552 100.571 576.91 99.8104C576.91 99.8104 576.91 99.7404 576.91 99.7204C577.295 98.9054 577.574 98.0454 577.74 97.1604C589.78 113.86 589.51 134.01 578.18 147.89Z" fill="#3FBDF1"/>
<path d="M577.64 89.1604C592.15 106.43 592.64 128.34 580.57 143.16C579.673 144.269 578.719 145.331 577.71 146.34C577.666 146.405 577.608 146.46 577.54 146.5C575.76 148.325 573.83 149.997 571.77 151.5C571.751 151.545 571.715 151.58 571.67 151.6C571.556 151.718 571.429 151.822 571.29 151.91C570.29 152.65 569.24 153.34 568.14 154.01C566.69 154.91 565.14 155.77 563.54 156.56C554.86 160.83 544.77 163.31 535.54 160.56C527.94 158.27 521.64 152.56 517.54 145.7C514.905 141.138 513.015 136.186 511.94 131.03" stroke="black" stroke-width="4.03" stroke-miterlimit="10"/>
<path d="M576.92 99.7284C576.92 99.7284 576.92 99.7984 576.92 99.8184C576.66 100.628 576.37 101.418 576.04 102.178C576.04 102.178 576.04 102.178 576.04 102.228C574.652 105.425 572.608 108.294 570.039 110.649C567.47 113.004 564.435 114.793 561.13 115.898C560.89 115.988 560.63 116.058 560.37 116.138C558.534 116.628 556.639 116.86 554.74 116.828C553.95 116.828 553.16 116.758 552.38 116.658C548.849 116.219 545.502 114.838 542.69 112.658C542.07 112.177 541.488 111.649 540.95 111.078C540.787 110.934 540.637 110.777 540.5 110.608C538.21 108.078 536.32 104.668 532.96 103.998C530.6 103.548 528.22 104.668 526.21 105.998C519.21 110.698 514.91 118.168 512.88 126.318C511.31 109.438 516.48 92.8584 531.46 83.3184C535.823 80.5834 540.66 78.6874 545.72 77.7284L556.86 77.1284C558.73 77.2804 560.588 77.5604 562.42 77.9684C568.1 79.2284 573.75 81.9684 577.16 86.6284C577.637 88.1114 577.909 89.6524 577.97 91.2084C577.97 91.3184 577.97 91.4684 577.97 91.6084C578.11 94.3564 577.754 97.1074 576.92 99.7284Z" fill="#3FBDF1"/>
<path d="M554.48 72.3784C556.347 72.5294 558.202 72.8094 560.03 73.2184C566.12 74.5784 572.15 77.6084 575.44 82.8784C575.864 83.5544 576.232 84.2634 576.54 84.9984C576.536 85.0154 576.536 85.0324 576.54 85.0484C576.54 85.0984 576.59 85.1884 576.64 85.3084C576.833 85.7454 577 86.1924 577.14 86.6484C577.617 88.1314 577.89 89.6724 577.95 91.2284C577.95 91.3384 577.95 91.4884 577.95 91.6284C578.071 94.3694 577.698 97.1094 576.85 99.7184C576.85 99.7184 576.85 99.7884 576.85 99.8084C576.59 100.618 576.3 101.408 575.97 102.168C575.97 102.168 575.97 102.168 575.97 102.218C574.582 105.415 572.538 108.284 569.969 110.639C567.4 112.994 564.365 114.783 561.06 115.888C560.82 115.978 560.56 116.048 560.3 116.128C558.464 116.618 556.57 116.85 554.67 116.818C553.88 116.818 553.09 116.748 552.31 116.648C548.779 116.209 545.432 114.828 542.62 112.648C542 112.167 541.419 111.639 540.88 111.068C540.718 110.924 540.567 110.767 540.43 110.598C538.14 108.068 536.25 104.658 532.89 103.988C530.53 103.538 528.15 104.658 526.14 105.988C519.14 110.688 514.84 118.158 512.81 126.308C512.4 127.813 512.09 129.343 511.88 130.888C511.268 128.252 510.82 125.58 510.54 122.888C508.54 105.518 513.62 88.2984 529 78.5484C533.386 75.7924 538.25 73.8824 543.34 72.9184" stroke="black" stroke-width="4.03" stroke-linecap="square" stroke-linejoin="bevel"/>
<path d="M554.48 72.3814C553.48 72.3114 552.48 72.2614 551.57 72.2614C551.33 69.1414 548.39 72.4114 545.65 70.0014C548.9 62.0514 541.12 55.4014 536.45 52.9214C527.17 48.0114 516.22 44.2914 505.58 45.4314C492.08 46.9114 486.29 57.5214 477.68 66.4314C468.02 76.4314 452.94 79.1614 439.04 78.5414C430.26 78.1414 421.04 76.4214 414.35 70.7214C413.66 70.1314 413.02 69.5014 412.35 68.8614C410.588 65.0714 409.644 60.9514 409.58 56.7714C409.61 48.7474 412.164 40.9344 416.88 34.4414C422.88 25.8614 431.76 19.4414 441.52 15.5814C451.355 11.8414 461.81 10.0024 472.33 10.1614C494.436 10.1264 516.04 16.7474 534.33 29.1614C540.5 33.4274 545.992 38.5984 550.62 44.5014C550.62 44.5014 550.62 44.5714 550.69 44.5914C555.72 53.4514 557.89 63.2014 554.48 72.3814Z" fill="#3FBDF1"/>
<path d="M574.15 89.7304C574.596 91.0724 574.954 92.4414 575.22 93.8304L574.15 89.7304Z" fill="#3FBDF1"/>
<path d="M576.54 85.0004C576.536 85.0164 576.536 85.0334 576.54 85.0504C577.281 87.1794 577.771 89.3874 578 91.6304C578.193 93.4764 578.102 95.3414 577.73 97.1604C577.566 98.0454 577.287 98.9064 576.9 99.7204C576.9 99.7204 576.9 99.7904 576.9 99.8104C576.542 100.57 576.248 101.36 576.02 102.17C576.02 102.17 576.02 102.17 576.02 102.22C573.94 109.33 574.16 122.22 580.67 125.69C584.51 127.74 581.76 134.78 578.28 141.03C576.164 144.766 573.826 148.372 571.28 151.83" stroke="black" stroke-width="4.03" stroke-miterlimit="10"/>
<path d="M554.48 72.3794C553.48 72.3094 552.48 72.2594 551.57 72.2594C548.81 72.2284 546.053 72.4694 543.34 72.9794C546.49 69.8794 547.27 66.7094 546.58 63.7694C545.53 59.3394 541.12 55.3994 536.45 52.9194C527.17 48.0094 516.22 44.2894 505.58 45.4294C492.08 46.9094 486.29 57.5194 477.68 66.4294C468.02 76.4294 452.94 79.1594 439.04 78.5394C430.26 78.1394 421.04 76.4194 414.35 70.7194C413.66 70.1294 413.02 69.4994 412.35 68.8594C407.547 63.5924 404.862 56.7364 404.81 49.6094C404.84 41.5874 407.394 33.7784 412.11 27.2894C418.11 18.6994 426.99 12.2894 436.75 8.4194C446.586 4.6874 457.041 2.8514 467.56 3.0094C489.666 2.9734 511.27 9.5934 529.56 22.0094C537.56 27.4994 545.56 35.5094 550.62 44.5094C550.62 44.5094 550.62 44.5794 550.69 44.5994C555.72 53.4494 557.89 63.1994 554.48 72.3794Z" stroke="black" stroke-width="4.03" stroke-miterlimit="10"/>
<path d="M556.12 132.32C556.12 132.32 551.12 141.61 549.94 142.5C548.76 143.39 546.94 140.12 546.94 140.12" stroke="black" stroke-width="4.03" stroke-miterlimit="10"/>
<path d="M551.15 151.502C548.35 153.232 544.71 153.612 541.5 153.722C536.35 153.892 534.67 149.582 534.65 145.002C534.714 142.526 535.029 140.064 535.59 137.652C537.34 140.962 539.14 144.312 541.76 146.992C544.38 149.672 547.54 150.522 551.15 151.502Z" stroke="black" stroke-width="4.03" stroke-miterlimit="10"/>
<path d="M562.12 118.391C562.12 118.391 558.12 105.821 546.39 106.041" stroke="black" stroke-width="4.03" stroke-miterlimit="10"/>
<path d="M543.94 134.818C550.755 134.818 556.28 129.423 556.28 122.768C556.28 116.113 550.755 110.718 543.94 110.718C537.125 110.718 531.6 116.113 531.6 122.768C531.6 129.423 537.125 134.818 543.94 134.818Z" stroke="black" stroke-width="4.03" stroke-miterlimit="10"/>
<path d="M568.3 153.92C575.115 153.92 580.64 148.525 580.64 141.87C580.64 135.215 575.115 129.82 568.3 129.82C561.485 129.82 555.96 135.215 555.96 141.87C555.96 148.525 561.485 153.92 568.3 153.92Z" stroke="black" stroke-width="4.03" stroke-miterlimit="10"/>
<path d="M568.31 133.729C570.214 133.723 572.064 134.361 573.56 135.539C574.402 136.194 575.105 137.011 575.627 137.942C576.148 138.873 576.479 139.899 576.598 140.959C576.717 142.019 576.623 143.093 576.321 144.117C576.019 145.14 575.516 146.093 574.84 146.919C573.42 148.618 571.395 149.699 569.193 149.932C566.991 150.165 564.784 149.533 563.04 148.169C562.196 147.514 561.492 146.696 560.97 145.764C560.447 144.832 560.116 143.805 559.997 142.744C559.878 141.682 559.972 140.607 560.275 139.583C560.578 138.558 561.083 137.605 561.76 136.779C562.558 135.817 563.559 135.044 564.692 134.516C565.825 133.989 567.06 133.72 568.31 133.729ZM568.31 131.729C566.763 131.72 565.234 132.056 563.833 132.712C562.432 133.367 561.195 134.326 560.21 135.519C559.367 136.55 558.739 137.74 558.362 139.017C557.985 140.295 557.868 141.635 558.016 142.958C558.164 144.282 558.575 145.563 559.225 146.725C559.875 147.888 560.75 148.909 561.8 149.729C563.957 151.416 566.686 152.199 569.409 151.909C572.132 151.62 574.636 150.282 576.39 148.179C577.239 147.146 577.873 145.954 578.253 144.673C578.633 143.391 578.753 142.046 578.605 140.718C578.457 139.389 578.044 138.104 577.39 136.938C576.737 135.772 575.856 134.749 574.8 133.929C572.948 132.479 570.662 131.693 568.31 131.699V131.729Z" fill="white"/>
<path d="M553.56 130.308L558.68 134.328" stroke="black" stroke-width="4.03" stroke-miterlimit="10"/>
<path d="M541.3 119.73L541.99 119.78C543.544 119.892 545.023 120.495 546.212 121.502C547.402 122.508 548.241 123.866 548.61 125.38" stroke="black" stroke-width="4.03" stroke-miterlimit="10"/>
<path d="M564.64 139.832H565.34C566.894 139.946 568.371 140.549 569.561 141.555C570.75 142.561 571.59 143.918 571.96 145.432" stroke="black" stroke-width="4.03" stroke-miterlimit="10"/>
<path d="M655.44 343.189C664.989 343.189 672.73 335.448 672.73 325.899C672.73 316.35 664.989 308.609 655.44 308.609C645.891 308.609 638.15 316.35 638.15 325.899C638.15 335.448 645.891 343.189 655.44 343.189Z" fill="#3FBDF1"/>
<path d="M655.44 343.189C664.989 343.189 672.73 335.448 672.73 325.899C672.73 316.35 664.989 308.609 655.44 308.609C645.891 308.609 638.15 316.35 638.15 325.899C638.15 335.448 645.891 343.189 655.44 343.189Z" stroke="black" stroke-width="4.03" stroke-miterlimit="10"/>
<path d="M655.44 343.189C664.989 343.189 672.73 335.448 672.73 325.899C672.73 316.35 664.989 308.609 655.44 308.609C645.891 308.609 638.15 316.35 638.15 325.899C638.15 335.448 645.891 343.189 655.44 343.189Z" stroke="black" stroke-width="4.03" stroke-miterlimit="10"/>
<path d="M351.94 93.9414C351.94 93.9414 286.94 107.941 235.67 178.281" stroke="black" stroke-width="4.03" stroke-miterlimit="10"/>
<path d="M638.14 442.23C638.14 442.23 659.8 470.35 657.82 510.35" stroke="black" stroke-width="4.03" stroke-miterlimit="10"/>
<path d="M164.6 325.421H112.13" stroke="black" stroke-width="4.03" stroke-miterlimit="10"/>
<path d="M149.39 314.941H167.78" stroke="black" stroke-width="4.03" stroke-miterlimit="10"/>
</svg>
