<svg width="251" height="49" viewBox="0 0 251 49" fill="none" xmlns="http://www.w3.org/2000/svg">
<g clip-path="url(#clip0_350_56)">
<path d="M68.3501 40.21H55.8701V35.78H68.3501C69.9601 35.78 71.2701 34.47 71.2701 32.86C71.2701 31.25 69.9601 29.94 68.3501 29.94H63.2201C59.1701 29.94 55.8701 26.64 55.8701 22.59C55.8701 18.54 59.1701 15.24 63.2201 15.24H75.7001V19.67H63.2201C61.6101 19.67 60.3001 20.98 60.3001 22.59C60.3001 24.2 61.6101 25.51 63.2201 25.51H68.3501C72.4001 25.51 75.7001 28.81 75.7001 32.86C75.7001 36.91 72.4001 40.21 68.3501 40.21Z" fill="#010101"/>
<path d="M179.44 40.21H175.01V27.58C175.01 20.78 180.54 15.25 187.34 15.25H194.84V19.68H187.34C182.98 19.68 179.44 23.22 179.44 27.58V40.21Z" fill="#010101"/>
<path d="M96.9803 40.21H93.4803C86.4803 40.21 80.7803 34.51 80.7803 27.51V8.04004H85.2103V27.51C85.2103 32.07 88.9203 35.78 93.4803 35.78H96.9803V40.21Z" fill="#010101"/>
<path d="M143.5 40.21H141.29C134.29 40.21 128.59 34.51 128.59 27.51V8.04004H133.02V27.51C133.02 32.07 136.73 35.78 141.29 35.78H143.5V40.21Z" fill="#010101"/>
<path d="M170.02 27.72H165.59V40.22H170.02V27.72Z" fill="#010101"/>
<path d="M157.53 40.21C150.65 40.21 145.05 34.61 145.05 27.73C145.05 20.85 150.65 15.25 157.53 15.25C164.41 15.25 170.01 20.85 170.01 27.73C170.01 34.61 164.41 40.21 157.53 40.21ZM157.53 19.68C153.09 19.68 149.48 23.29 149.48 27.73C149.48 32.17 153.09 35.78 157.53 35.78C161.97 35.78 165.58 32.17 165.58 27.73C165.58 23.29 161.97 19.68 157.53 19.68Z" fill="#010101"/>
<path d="M250.25 27.72H245.82V40.22H250.25V27.72Z" fill="#010101"/>
<path d="M237.77 40.21C230.89 40.21 225.29 34.61 225.29 27.73C225.29 20.85 230.89 15.25 237.77 15.25C244.65 15.25 250.25 20.85 250.25 27.73C250.25 34.61 244.65 40.21 237.77 40.21ZM237.77 19.68C233.33 19.68 229.72 23.29 229.72 27.73C229.72 32.17 233.33 35.78 237.77 35.78C242.21 35.78 245.82 32.17 245.82 27.73C245.82 23.29 242.21 19.68 237.77 19.68Z" fill="#010101"/>
<path d="M95.8303 15.25H80.7803V19.68H95.8303V15.25Z" fill="#010101"/>
<path d="M117.36 40.21H111.97C105.09 40.21 99.4902 34.61 99.4902 27.73C99.4902 20.85 105.09 15.25 111.97 15.25C118.85 15.25 124.45 20.85 124.45 27.73V29.94H104.23C105.19 33.31 108.3 35.78 111.97 35.78H117.36V40.21ZM104.22 25.52H119.71C118.75 22.15 115.64 19.68 111.96 19.68C108.28 19.68 105.18 22.15 104.22 25.52Z" fill="#010101"/>
<path d="M214.54 40.21H209.15C202.27 40.21 196.67 34.61 196.67 27.73C196.67 20.85 202.27 15.25 209.15 15.25C216.03 15.25 221.63 20.85 221.63 27.73V29.94H201.41C202.37 33.31 205.48 35.78 209.15 35.78H214.54V40.21ZM201.4 25.52H216.89C215.93 22.15 212.82 19.68 209.14 19.68C205.46 19.68 202.36 22.15 201.4 25.52Z" fill="#010101"/>
<path d="M0 42.1499L29.49 12.6599C37.63 20.7999 37.63 34.0099 29.49 42.1499C21.35 50.2899 8.14 50.2899 0 42.1499Z" fill="url(#paint0_linear_350_56)"/>
<path d="M36.0398 6.10988L6.54982 35.5999C-1.59018 27.4599 -1.59018 14.2499 6.54982 6.10988C14.6898 -2.03012 27.8998 -2.03012 36.0398 6.10988Z" fill="url(#paint1_linear_350_56)"/>
<path d="M29.4902 12.6598L13.1102 29.0398C8.59021 24.5198 8.59021 17.1798 13.1102 12.6598C17.6302 8.13978 24.9702 8.13978 29.4902 12.6598Z" fill="#1E5DAB"/>
<path d="M6.5498 35.6L22.9298 19.22C27.4498 23.74 27.4498 31.08 22.9298 35.6C18.4098 40.12 11.0698 40.12 6.5498 35.6Z" fill="#1E5DAB"/>
</g>
<defs>
<linearGradient id="paint0_linear_350_56" x1="36.86" y1="20.0399" x2="7.37" y2="49.5299" gradientUnits="userSpaceOnUse">
<stop stop-color="#72D0F6" stop-opacity="0.2"/>
<stop offset="0.15" stop-color="#5FC6F0" stop-opacity="0.38"/>
<stop offset="0.35" stop-color="#49BBEA" stop-opacity="0.6"/>
<stop offset="0.54" stop-color="#38B3E6" stop-opacity="0.77"/>
<stop offset="0.72" stop-color="#2CADE2" stop-opacity="0.9"/>
<stop offset="0.88" stop-color="#24A9E0" stop-opacity="0.97"/>
<stop offset="1" stop-color="#22A8E0"/>
</linearGradient>
<linearGradient id="paint1_linear_350_56" x1="-0.820176" y1="28.2299" x2="28.6698" y2="-1.26012" gradientUnits="userSpaceOnUse">
<stop stop-color="#72D0F6" stop-opacity="0.2"/>
<stop offset="0.15" stop-color="#5FC6F0" stop-opacity="0.38"/>
<stop offset="0.35" stop-color="#49BBEA" stop-opacity="0.6"/>
<stop offset="0.54" stop-color="#38B3E6" stop-opacity="0.77"/>
<stop offset="0.72" stop-color="#2CADE2" stop-opacity="0.9"/>
<stop offset="0.88" stop-color="#24A9E0" stop-opacity="0.97"/>
<stop offset="1" stop-color="#22A8E0"/>
</linearGradient>
<clipPath id="clip0_350_56">
<rect width="250.25" height="48.26" fill="white"/>
</clipPath>
</defs>
</svg>
