<svg width="195" height="49" viewBox="0 0 195 49" fill="none" xmlns="http://www.w3.org/2000/svg">
<g clip-path="url(#clip0_1512_204)">
<path d="M68.35 40.21H55.87V35.78H68.35C69.96 35.78 71.27 34.47 71.27 32.86C71.27 31.25 69.96 29.94 68.35 29.94H63.22C59.17 29.94 55.87 26.64 55.87 22.59C55.87 18.54 59.17 15.24 63.22 15.24H75.7V19.67H63.22C61.61 19.67 60.3 20.98 60.3 22.59C60.3 24.2 61.61 25.51 63.22 25.51H68.35C72.4 25.51 75.7 28.81 75.7 32.86C75.7 36.91 72.4 40.21 68.35 40.21Z" fill="white"/>
<path d="M179.44 40.21H175.01V27.58C175.01 20.78 180.54 15.25 187.34 15.25H194.84V19.68H187.34C182.98 19.68 179.44 23.22 179.44 27.58V40.21Z" fill="white"/>
<path d="M96.98 40.21H93.48C86.48 40.21 80.78 34.51 80.78 27.51V8.04001H85.21V27.52C85.21 32.08 88.92 35.79 93.48 35.79H96.98V40.22V40.21Z" fill="white"/>
<path d="M143.5 40.21H141.29C134.29 40.21 128.59 34.51 128.59 27.51V8.04001H133.02V27.52C133.02 32.08 136.73 35.79 141.29 35.79H143.5V40.22V40.21Z" fill="white"/>
<path d="M170.02 27.72H165.59V40.22H170.02V27.72Z" fill="white"/>
<path d="M157.53 40.21C150.65 40.21 145.05 34.61 145.05 27.73C145.05 20.85 150.65 15.25 157.53 15.25C164.41 15.25 170.01 20.85 170.01 27.73C170.01 34.61 164.41 40.21 157.53 40.21ZM157.53 19.68C153.09 19.68 149.48 23.29 149.48 27.73C149.48 32.17 153.09 35.78 157.53 35.78C161.97 35.78 165.58 32.17 165.58 27.73C165.58 23.29 161.97 19.68 157.53 19.68Z" fill="white"/>
<path d="M95.83 15.25H80.78V19.68H95.83V15.25Z" fill="white"/>
<path d="M117.36 40.21H111.97C105.09 40.21 99.49 34.61 99.49 27.73C99.49 20.85 105.09 15.25 111.97 15.25C118.85 15.25 124.45 20.85 124.45 27.73V29.94H104.23C105.19 33.31 108.3 35.78 111.97 35.78H117.36V40.21ZM104.22 25.52H119.71C118.75 22.15 115.64 19.68 111.96 19.68C108.28 19.68 105.18 22.15 104.22 25.52Z" fill="white"/>
<path d="M0 42.15L29.49 12.66C37.63 20.8 37.63 34.01 29.49 42.15C21.35 50.29 8.14 50.29 0 42.15Z" fill="url(#paint0_linear_1512_204)"/>
<path d="M36.04 6.11001L6.55001 35.6C-1.58999 27.46 -1.58999 14.25 6.55001 6.11001C14.69 -2.02999 27.9 -2.02999 36.04 6.11001Z" fill="url(#paint1_linear_1512_204)"/>
<path d="M29.49 12.66L13.11 29.04C8.59 24.52 8.59 17.18 13.11 12.66C17.63 8.14 24.97 8.14 29.49 12.66Z" fill="#1E5DAB"/>
<path d="M6.54999 35.6L22.94 19.21C27.46 23.73 27.46 31.07 22.94 35.59C18.42 40.11 11.08 40.11 6.55999 35.59L6.54999 35.6Z" fill="#1E5DAB"/>
</g>
<defs>
<linearGradient id="paint0_linear_1512_204" x1="36.86" y1="20.04" x2="7.37" y2="49.53" gradientUnits="userSpaceOnUse">
<stop stop-color="#72D0F6" stop-opacity="0.2"/>
<stop offset="0.15" stop-color="#5FC6F0" stop-opacity="0.38"/>
<stop offset="0.35" stop-color="#49BBEA" stop-opacity="0.6"/>
<stop offset="0.54" stop-color="#38B3E6" stop-opacity="0.77"/>
<stop offset="0.72" stop-color="#2CADE2" stop-opacity="0.9"/>
<stop offset="0.88" stop-color="#24A9E0" stop-opacity="0.97"/>
<stop offset="1" stop-color="#22A8E0"/>
</linearGradient>
<linearGradient id="paint1_linear_1512_204" x1="-0.819993" y1="28.23" x2="28.67" y2="-1.26" gradientUnits="userSpaceOnUse">
<stop stop-color="#72D0F6" stop-opacity="0.2"/>
<stop offset="0.15" stop-color="#5FC6F0" stop-opacity="0.38"/>
<stop offset="0.35" stop-color="#49BBEA" stop-opacity="0.6"/>
<stop offset="0.54" stop-color="#38B3E6" stop-opacity="0.77"/>
<stop offset="0.72" stop-color="#2CADE2" stop-opacity="0.9"/>
<stop offset="0.88" stop-color="#24A9E0" stop-opacity="0.97"/>
<stop offset="1" stop-color="#22A8E0"/>
</linearGradient>
<clipPath id="clip0_1512_204">
<rect width="194.84" height="48.26" fill="white"/>
</clipPath>
</defs>
</svg>
