<svg width="0" height="0" style="display:none;">
	<symbol id="icon-service-branding" viewBox="0 0 24 24" fill="none" stroke="currentColor" xmlns="http://www.w3.org/2000/svg">
		<path d="M9.71432 21.1428H14.2857M12 2.85709V1.71423M17.7143 5.1428L18.8572 3.99995M6.28575 5.1428L5.14289 3.99995M17.7143 15.4285L18.8572 16.5714M6.28575 15.4285L5.14289 16.5714M4.00003 9.71423H2.85718M21.1429 9.71423H20M12 5.71423C13.1604 5.71352 14.2869 6.10523 15.1965 6.82572C16.106 7.5462 16.7452 8.5531 17.0102 9.6828C17.2751 10.8125 17.1503 11.9986 16.6559 13.0484C16.1614 14.0981 15.3266 14.9498 14.2869 15.4651L14.2857 16.5714C14.2857 17.1776 14.0449 17.759 13.6163 18.1876C13.1876 18.6163 12.6062 18.8571 12 18.8571C11.3938 18.8571 10.8124 18.6163 10.3838 18.1876C9.95514 17.759 9.71432 17.1776 9.71432 16.5714V15.4651C8.67473 14.9499 7.8399 14.0983 7.34548 13.0486C6.85106 11.999 6.7261 10.813 6.9909 9.68336C7.2557 8.55372 7.8947 7.54682 8.80408 6.82625C9.71346 6.10568 10.8398 5.71378 12 5.71423Z" stroke-linecap="round" stroke-linejoin="round" />
	</symbol>
</svg>
