<svg width="0" height="0" style="display:none;">
	<symbol id="icon-service-branding" viewBox="0 0 24 24" fill="none" stroke="currentColor" xmlns="http://www.w3.org/2000/svg">
		<path d="M9.71432 21.1428H14.2857M12 2.85709V1.71423M17.7143 5.1428L18.8572 3.99995M6.28575 5.1428L5.14289 3.99995M17.7143 15.4285L18.8572 16.5714M6.28575 15.4285L5.14289 16.5714M4.00003 9.71423H2.85718M21.1429 9.71423H20M12 5.71423C13.1604 5.71352 14.2869 6.10523 15.1965 6.82572C16.106 7.5462 16.7452 8.5531 17.0102 9.6828C17.2751 10.8125 17.1503 11.9986 16.6559 13.0484C16.1614 14.0981 15.3266 14.9498 14.2869 15.4651L14.2857 16.5714C14.2857 17.1776 14.0449 17.759 13.6163 18.1876C13.1876 18.6163 12.6062 18.8571 12 18.8571C11.3938 18.8571 10.8124 18.6163 10.3838 18.1876C9.95514 17.759 9.71432 17.1776 9.71432 16.5714V15.4651C8.67473 14.9499 7.8399 14.0983 7.34548 13.0486C6.85106 11.999 6.7261 10.813 6.9909 9.68336C7.2557 8.55372 7.8947 7.54682 8.80408 6.82625C9.71346 6.10568 10.8398 5.71378 12 5.71423Z" stroke-linecap="round" stroke-linejoin="round" />
	</symbol>
	<symbol id="icon-btn-arrow" viewBox="0 0 48 48" fill="none" stroke="currentColor" stroke-width="5" xmlns="http://www.w3.org/2000/svg">
		<path d="M2.78684 45.2133L45.2132 2.78685M45.2132 2.78685V36.728M45.2132 2.78685H11.2721" stroke-linecap="round" stroke-linejoin="round" />
	</symbol>
	<symbol id="icon-quote" viewBox="0 0 42 34" fill="currentColor" xmlns="http://www.w3.org/2000/svg">
		<path d="M4.99995 33.7999C3.72691 33.7999 2.50601 33.2942 1.60584 32.394C0.705664 31.4939 0.199951 30.273 0.199951 28.9999L0.199949 12.9999C0.199949 9.60516 1.54852 6.34943 3.94898 3.94896C6.34945 1.5485 9.60518 0.199927 12.9999 0.199927L12.9999 3.39993C10.4539 3.39993 8.01207 4.41135 6.21172 6.2117C4.41137 8.01205 3.39995 10.4538 3.39995 12.9999L3.39995 14.5999L14.5999 14.5999C15.873 14.5999 17.0939 15.1056 17.9941 16.0058C18.8942 16.906 19.3999 18.1269 19.3999 19.3999L19.3999 28.9999C19.3999 30.273 18.8942 31.4939 17.9941 32.394C17.0939 33.2942 15.873 33.7999 14.6 33.7999L4.99995 33.7999ZM27.4 33.7999C26.1269 33.7999 24.906 33.2942 24.0058 32.394C23.1057 31.4939 22.5999 30.273 22.5999 28.9999L22.5999 12.9999C22.5999 9.60515 23.9485 6.34943 26.349 3.94896C28.7494 1.5485 32.0052 0.199926 35.3999 0.199925L35.3999 3.39993C32.8539 3.39993 30.4121 4.41135 28.6117 6.2117C26.8114 8.01205 25.7999 10.4538 25.7999 12.9999L25.7999 14.5999L36.9999 14.5999C38.273 14.5999 39.4939 15.1056 40.3941 16.0058C41.2942 16.906 41.7999 18.1269 41.7999 19.3999L41.7999 28.9999C41.7999 30.273 41.2942 31.4939 40.3941 32.394C39.4939 33.2942 38.273 33.7999 37 33.7999L27.4 33.7999Z" />
	</symbol>
</svg>
