<svg width="0" height="0" style="display:none;">
	<symbol id="icon-notification" fill="currentColor" xmlns="http://www.w3.org/2000/svg" viewBox="0 0 60 60">
		<path d="M56 40C56 43.3115 53.307 46 49.9901 46H10.0099C6.69092 46 4 43.3151 4 40C4 36.6893 6.68866 34 10.0021 34C9.99819 34 10 21.9992 10 21.9992C10 10.9511 18.9529 2 30 2C41.0471 2 50 10.9532 50 21.9992V33.9983C53.3064 34 56 36.6883 56 40ZM49.9979 38C47.7877 38 46 36.2131 46 33.9983V21.9992C46 13.1623 38.838 6 30 6C21.1619 6 14 13.1604 14 21.9992V33.9983C14 36.2068 12.2079 38 10.0021 38C8.89803 38 8 38.8983 8 40C8 41.104 8.89804 42 10.0099 42H49.9901C51.0993 42 52 41.1009 52 40C52 38.8992 51.099 38 49.9979 38ZM21 49H25C25 51.7614 27.2386 54 30 54C32.7614 54 35 51.7614 35 49H39C39 53.9706 34.9706 58 30 58C25.0294 58 21 53.9706 21 49Z" />
	</symbol>
</svg>
