<svg width="24" height="24" viewBox="0 0 24 24" fill="none" xmlns="http://www.w3.org/2000/svg">
<path d="M12.04 7.87C15.29 7.87 18.54 7.87 21.79 7.87C21.9833 7.87 22.08 7.96667 22.08 8.16C22.08 12.15 22.08 16.14 22.08 20.14C22.08 21.25 21.33 21.99 20.23 21.99C14.78 21.99 9.32 21.99 3.87 21.99C2.83 22 2 21.17 2 20.14C2.02 16.15 2 12.16 2 8.16C2 7.96667 2.09667 7.87 2.29 7.87C5.54 7.87 8.79 7.87 12.04 7.87ZM14.37 10.28C14.37 10.15 14.34 10.04 14.28 9.94C14.16 9.75 13.99 9.66 13.77 9.67C13.52 9.68 13.35 9.83 13.25 10.06C12.64 11.5 12.02 12.94 11.4 14.38C10.86 15.64 10.32 16.9 9.78 18.16C9.7 18.36 9.67 18.55 9.78 18.74C9.89 18.93 10.07 19.03 10.28 19.02C10.54 19.01 10.71 18.86 10.81 18.62C11.96 15.93 13.12 13.24 14.27 10.55C14.31 10.46 14.33 10.36 14.35 10.29L14.37 10.28ZM19.07 14.34C19.07 14.13 18.95 13.97 18.78 13.84C18.4 13.54 18.03 13.24 17.65 12.94C17.08 12.48 16.51 12.02 15.94 11.58C15.57 11.29 15.09 11.47 15.01 11.92C14.96 12.18 15.11 12.36 15.31 12.52C15.99 13.06 16.66 13.6 17.34 14.14C17.5133 14.28 17.5133 14.42 17.34 14.56C17.26 14.62 17.19 14.68 17.11 14.74C16.5 15.22 15.9 15.71 15.29 16.19C15.1 16.34 14.97 16.52 15.02 16.78C15.1 17.22 15.56 17.4 15.92 17.13C16.21 16.92 16.48 16.69 16.76 16.46C17.43 15.92 18.1 15.38 18.78 14.85C18.95 14.72 19.07 14.57 19.07 14.33V14.34ZM8.51 11.43C8.33 11.44 8.19 11.53 8.06 11.64C7.15 12.37 6.24 13.1 5.33 13.83C4.91 14.16 4.92 14.54 5.33 14.88C5.7 15.18 6.07 15.47 6.44 15.77C7.01 16.22 7.57 16.68 8.14 17.12C8.52 17.42 9 17.22 9.07 16.76C9.11 16.5 8.96 16.33 8.77 16.18C8.07 15.62 7.37 15.05 6.66 14.5C6.52 14.39 6.5 14.33 6.66 14.21C7.04 13.92 7.41 13.62 7.78 13.32C8.14 13.03 8.51 12.75 8.86 12.45C9.08 12.27 9.13 12.03 9.03 11.78C8.95 11.58 8.72 11.43 8.51 11.43Z" fill="#0A95E3"/>
<path d="M12.04 6.73C8.79 6.73 5.54 6.73 2.29 6.73C2.09667 6.73 2 6.63333 2 6.44C2 5.56 2 4.68 2 3.8C2.01 2.77 2.78 2 3.8 2C9.29 2 14.78 2 20.28 2C21.31 2 22.07 2.77 22.08 3.79C22.08 4.68 22.08 5.56 22.08 6.45C22.08 6.72 22.08 6.72 21.81 6.72C18.55 6.72 15.3 6.72 12.04 6.72V6.73ZM17.32 4.38C16.76 4.38 16.2 4.38 15.64 4.38C15.27 4.38 15 4.62 14.99 4.95C14.99 5.27 15.26 5.52 15.63 5.53C15.68 5.53 15.72 5.53 15.77 5.53C16.81 5.53 17.84 5.53 18.88 5.53C18.94 5.53 19 5.53 19.06 5.53C19.4 5.51 19.66 5.26 19.66 4.95C19.66 4.64 19.4 4.4 19.05 4.38C19 4.38 18.95 4.38 18.89 4.38C18.37 4.38 17.85 4.38 17.32 4.38ZM5.56 4.95C5.56 4.66 5.29 4.38 5 4.38C4.71 4.38 4.43 4.65 4.43 4.94C4.43 5.24 4.71 5.52 5 5.52C5.29 5.52 5.56 5.24 5.56 4.95ZM7.35 4.38C7.06 4.38 6.78 4.64 6.77 4.94C6.77 5.23 7.03 5.51 7.32 5.52C7.62 5.53 7.9 5.25 7.91 4.95C7.91 4.66 7.64 4.38 7.35 4.38ZM10.26 4.94C10.26 4.65 9.98 4.38 9.69 4.38C9.4 4.38 9.12 4.65 9.12 4.94C9.12 5.24 9.4 5.52 9.7 5.51C9.99 5.51 10.26 5.23 10.26 4.94Z" fill="#0A95E3"/>
</svg>
